<?xml version="1.0" encoding="UTF-8" standalone="no"?>
<svg
   xmlns:dc="http://purl.org/dc/elements/1.1/"
   xmlns:cc="http://creativecommons.org/ns#"
   xmlns:rdf="http://www.w3.org/1999/02/22-rdf-syntax-ns#"
   xmlns:svg="http://www.w3.org/2000/svg"
   xmlns="http://www.w3.org/2000/svg"
   xmlns:sodipodi="http://sodipodi.sourceforge.net/DTD/sodipodi-0.dtd"
   xmlns:inkscape="http://www.inkscape.org/namespaces/inkscape"
   width="472.27307"
   height="471.22198"
   version="1.2"
   id="svg2"
   inkscape:version="0.48.2 r9819"
   sodipodi:docname="Essai53.svg">
  <metadata
     id="metadata17022">
    <rdf:RDF>
      <cc:Work
         rdf:about="">
        <dc:format>image/svg+xml</dc:format>
        <dc:type
           rdf:resource="http://purl.org/dc/dcmitype/StillImage" />
        <dc:title />
      </cc:Work>
    </rdf:RDF>
  </metadata>
  <sodipodi:namedview
     pagecolor="#ffffff"
     bordercolor="#666666"
     borderopacity="1"
     objecttolerance="10"
     gridtolerance="10"
     guidetolerance="10"
     inkscape:pageopacity="0"
     inkscape:pageshadow="2"
     inkscape:window-width="1280"
     inkscape:window-height="964"
     id="namedview17020"
     showgrid="false"
     inkscape:zoom="0.99999999"
     inkscape:cx="242.35275"
     inkscape:cy="275.85794"
     inkscape:window-x="-4"
     inkscape:window-y="-4"
     inkscape:window-maximized="1"
     inkscape:current-layer="svg2">
    <inkscape:grid
       type="xygrid"
       id="grid3090"
       empspacing="5"
       visible="true"
       enabled="true"
       snapvisiblegridlinesonly="true"
       spacingx="0.5px"
       spacingy="0.5px" />
  </sodipodi:namedview>
  <defs
     id="defs6" />
  <g
     inkscape:groupmode="layer"
     id="layer3"
     inkscape:label="Cantons"
     style="fill:#ffffff;fill-opacity:1;fill-rule:evenodd;stroke:#000000;stroke-width:1;stroke-linecap:square;stroke-linejoin:bevel;stroke-miterlimit:4;stroke-opacity:1;stroke-dasharray:none;display:inline">
    <path
       inkscape:connector-curvature="0"
       id="Laval-Nord-Ouest"
       d="m 185.5,276.72198 -2,-12 -11.8047,1.57142 0.1181,3.6138 4.535,2.9644 -0.8484,7.85038 z"
       style="fill:#5fd35f" />
    <path
       style="fill:#aaffaa"
       d="M 193.125 222.6875 L 191.5625 229.8125 L 188.25 230.59375 L 178.4375 225.5 L 169.09375 225.8125 L 163.84375 227.59375 L 164.3125 230.96875 L 161.65625 235.125 L 156.46875 233.4375 L 155.5 235 L 157.625 241.84375 L 156.84375 243.5 L 153.25 244.09375 L 156.40625 250.9375 L 159.5 252.875 L 165.78125 261.8125 L 171.6875 266.28125 L 183.53125 264.875 L 185.5 276.71875 L 193 277.75 L 201.4375 265.3125 L 204.96875 266.625 L 207 263.125 L 203.5625 261.6875 L 199.6875 255.34375 L 202.34375 246.53125 L 207.65625 239.03125 L 206.15625 233.78125 L 207.375 232.34375 L 217.78125 228.46875 L 218.5 226.53125 L 203.4375 227.53125 L 202.0625 224.1875 L 193.125 222.6875 z "
       id="Laval-Nord-Est" />
    <path
       inkscape:connector-curvature="0"
       id="Laval-Saint-Nicolas"
       d="m 196.49092,283.13548 4.50908,-7.9135 6.3615,6.97952 -2.5234,13.07968 -5.3381,1.4408 z"
       style="fill:#5fd35f" />
    <path
       vector-effect="none"
       d="m 258.6641,130.006 -1.0038,1.5943 -5.5862,-0.4369 -4.2397,-8.3497 1.8187,-3.3068 -1.677,-9.2236 1.3345,-7.4285 -3.2123,1.6416 -6.4483,-4.1571 -0.555,-7.6529 -3.6966,-4.2989 -1.6652,1.0157 -3.6256,2.0077 -4.4052,3.047 -3.6847,-0.2835 -5.8223,-6.897 -3.4604,-1.3818 1.4881,-3.3422 -5.468,-0.4252 -2.9171,-1.9722 -4.5587,-2.2203 -0.8621,-3.4958 3.2714,-0.6968 0.024,-3.1532 15.4475,-7.086 -6.8852,-6.7672 1.0865,-3.6729 2.9289,-2.3383 2.9997,1.9132 5.1492,-1.2046 1.9604,2.7399 3.6257,-0.5433 1.6534,-0.6259 0.1417,-3.4958 3.8382,-3.5784 1.7479,0.2834 0.1772,-1.7597 3.6611,6.6727 1.0393,11.7628 -0.3543,5.2318 15.4947,-8.2788 7.4875,-6.3302 0.3661,0.9566 -0.5314,1.7715 3.2359,4.4642 0.5669,3.6139 -1.2519,6.9797 2.055,2.9407 7.1923,1.7715 1.9014,5.468 2.7635,2.551 9.696,0.9211 2.8344,6.9443 3.7556,0.8385 1.7951,3.3659 -0.6849,3.7319 -6.2357,-4.2398 -9.6724,-0.9329 -5.2318,-5.7869 -1.9723,-0.071 -0.933,3.8146 0.992,13.2508 -4.5468,3.0352 -0.3071,1.9014 -5.22,1.7243 -3.4485,-0.9094 -4.9838,5.409 4.0862,7.8655 -2.4683,5.1137"
       id="Ambrières"
       style="fill:#ffaacc;fill-opacity:1" />
    <path
       id="Argentré"
       d="m 206.34375,210.3125 -3.4375,1.78125 L 199.25,219 l 2.8125,5.1875 1.375,3.34375 15.0625,-1 -0.0625,-1.9375 -4.375,-3.5 -0.46875,-5.5 L 208.25,213.5 l -1.90625,-3.1875 z m 20.15625,9.21875 -2.4375,2.6875 1.96875,2.9375 -0.1875,5.3125 -1.6875,0.59375 -6.375,-2.59375 -10.40625,3.875 -1.21875,1.4375 1.5,5.25 -5.3125,7.5 -2.65625,8.8125 3.875,6.34375 3.4375,1.4375 -2.03125,3.5 -4.125,8.65625 6.53125,6.90625 -2.75,13.15625 0.125,0.0312 4.84375,5.46875 -2.0625,4.6875 3.0625,1.96875 3.53125,-0.84375 3.40625,4.53125 -0.375,5.78125 2.65625,4.84375 -4.65625,7.90625 3.46875,0.375 14.90625,-7.6875 8.375,-2.5 0.4375,-7.21875 -11.09375,-3.53125 -0.28125,-1.9375 5.59375,-10.1875 5.4375,-4.375 7.125,-0.40625 -0.6875,-5.5625 2.8125,-8.78125 2.09375,-3.15625 5.625,-0.15625 8.21875,4.6875 2.125,-3 0.25,-3.75 -4.8125,-0.46875 -1.875,-2.84375 -16.25,-15.90625 -0.375,-5.40625 0.78125,-1.4375 -2.75,-1.5625 -0.3125,-3.03125 5.34375,-0.625 -3.53125,-6.25 2.65625,-10.5625 -1.8125,-2.9375 -3.1875,0.90625 -16.9375,-2.875 z"
       style="fill:#87deaa;fill-opacity:1" />
    <path
       vector-effect="none"
       d="m 413.009,217.8133 -3.9209,-3.8146 -6.9088,-0.8621 -4.4524,-5.7751 -7.5112,-0.095 -10.5463,4.3106 -2.0313,-1.2872 -3.5194,1.5943 -7.6293,-0.8857 -9.3535,6.4836 1.181,-7.6056 -6.3774,-12.2233 -2.362,-5.2791 -3.4839,-1.677 -11.0896,0.2007 -12.8847,2.5274 -1.5708,3.1887 -13.1681,-6.8734 -3.1769,2.0785 -3.1533,6.8734 -9.0582,2.74 -1.0275,0.3188 -5.0193,-5.4208 -5.3263,-1.7597 -1.9604,-2.8934 -0.7086,-7.4521 4.2634,-4.0745 -0.3425,-3.8973 -2.3148,-3.1769 0.3661,-5.8223 3.9918,-3.2714 4.8421,1.8778 1.122,-1.4054 3.5312,4.4997 7.5111,1.7833 12.2352,-5.4208 2.858,-1.6889 1.0983,-2.9525 4.2516,-0.5786 3.9682,-4.0391 1.4408,-6.9561 4.8421,-2.8934 4.0154,-2.2793 8.456,4.6413 11.5265,0.992 3.9446,-0.083 3.85,4.4405 2.0786,-0.6968 0.7322,1.7361 9.1291,-1.7243 3.3305,1.6889 -2.6927,6.6136 2.2675,4.8539 11.2077,0.2008 3.85,3.9681 3.7792,0.1063 2.9525,2.3856 5.4326,-1.1219 1.0511,1.6652 -1.429,7.7119 1.4408,3.5666 14.1839,6.153 5.4326,9.6724 -2.8463,4.4052 1.9369,5.0192 -6.8144,2.7517 -5.4208,4.9366"
       id="Bais"
       style="fill:#ffaacc;fill-opacity:1" />
    <path
       vector-effect="none"
       d="m 316.3087,451.734 -7.1568,-1.429 -9.5661,5.1728 -2.6927,-5.0311 -6.7317,-6.4482 -9.9322,-4.9484 -4.7594,-1.0275 -0.8976,1.3818 1.0039,9.1527 -5.905,9.2591 -10.1803,-4.228 -4.8893,1.8659 -4.228,-2.8225 -10.4282,12.2351 -13.3217,-1.2991 2.9407,-4.783 -4.1689,-3.8029 -0.9566,-5.716 -3.2124,-2.0077 -5.6451,1.1928 -1.618,-1.0511 4.287,-6.212 1.8778,-0.4488 1.2046,-6.9325 1.8542,0.1299 6.4483,-8.9283 3.4249,-1.3818 1.3817,-5.0429 4.3461,-3.3068 0.3071,-5.7987 -2.9525,-9.2236 0.4724,-7.6765 0.3306,-0.2244 1.0275,-6.0349 13.5815,-12.9556 3.7792,-0.2716 0.8621,-1.7006 1.1338,0.059 5.8105,7.2395 0.6259,5.6334 -0.3424,1.8542 -7.1097,1.9604 -0.3424,1.8542 3.9209,-0.012 1.3581,1.4172 4.5233,10.6526 0.4842,7.7356 2.9052,2.6218 9.696,1.0038 2.6691,1.5117 1.1219,2.9525 3.6139,0.8149 2.2557,2.9053 11.5148,0.3543 8.2906,4.9129 6.2711,3.8383 10.9006,-1.0039 0.3661,0.6023 2.1376,12.3651 1.2047,9.2472 -2.3384,2.8817 -0.6968,-3.7202 -9.4008,-6.4837 -1.8896,-0.3543 1.429,7.4994"
       id="Bierné"
       style="fill:#87aade;fill-opacity:1" />
    <path
       vector-effect="none"
       d="m 189.1741,336.433 1.5589,1.181 2.5037,13.3335 2.5628,2.7517 -5.3381,1.1456 -2.4565,2.9643 -0.4842,7.4875 -5.716,5.0193 3.1296,4.8657 -1.9486,2.1848 1.1928,1.3346 -1.4172,3.2713 -3.2832,0.874 -0.6732,1.6652 -3.0824,-2.0668 -14.8215,-1.7124 -1.9369,3.6611 -5.5507,1.6534 -4.535,3.5666 -3.7084,-0.5078 -0.2007,-5.3145 4.9247,-5.4799 -4.3697,-8.1371 -6.3065,-3.9799 -5.0901,7.6647 -5.0193,1.7715 -3.4012,-1.5235 -6.0822,-9.3535 -0.3779,-3.6375 -3.2123,0.035 -3.3777,-1.3463 -0.8857,-3.2478 -7.2514,-5.1255 -5.2554,4.5823 -5.1374,-0.9212 -4.3106,-3.6139 -7.3577,-1.5825 -3.0233,-2.1613 -5.1964,-4.4878 -5.3263,1.2991 -5.3027,-1.9722 -0.9212,4.9838 -2.4801,2.3856 -7.1805,0.2598 -2.9761,-2.1021 -1.0393,-7.1569 -9.7787,0.094 -0.2716,-7.7001 2.2557,-6.3184 2.9171,-1.9605 7.145,-1.2991 3.295,-8.3969 5.6098,-1.0274 5.409,1.0511 5.2554,2.0077 3.6611,1.0038 6.9915,-0.5905 7.6883,-3.9918 0.6378,1.8424 5.5979,1.5117 3.5312,10.9951 7.3694,1.6061 1.8188,-5.4444 11.7037,-0.4842 3.1769,-2.3502 3.8264,2.7872 1.4054,-0.7913 9.7433,3.9564 2.5273,2.4683 -0.3897,1.7478 -3.2242,1.7951 -0.1535,1.9015 6.0467,4.5704 3.6729,0.685 -2.9879,10.7117 5.6806,-2.7636 5.5271,-7.393 21.447,-0.4842 5.6451,-3.8855 7.3813,-0.3661"
       id="Cossé-le-Vivien"
       style="fill:#87cdde;fill-opacity:1" />
    <path
       d="m 191.2999,460.5088 -3.5312,-1.3935 -3.4367,-6.4955 -1.7597,-0.6968 -7.2631,1.7951 -1.9841,-5.1374 -8.2788,-3.8382 -1.4763,-3.3659 -7.3222,0.5433 -3.7792,-10.8888 1.925,-0.248 0.6024,-5.7043 -1.4054,-5.5979 -2.9525,-2.1967 -1.559,-5.8459 -8.137,-12.5422 4.1216,-3.8855 0.5905,-3.6139 -0.4842,-2.2911 3.7084,0.5078 4.535,-3.5666 5.5507,-1.6534 1.9368,-3.6611 14.8216,1.7124 3.0824,2.0668 0.6732,-1.6652 3.2832,-0.874 1.4172,-3.2713 -1.1929,-1.3346 1.9487,-2.1848 -3.1297,-4.8657 5.7161,-5.0193 0.4842,-7.4875 2.4565,-2.9643 5.3381,-1.1456 -2.5628,-2.7517 -2.5037,-13.3335 -1.5589,-1.181 5.657,-1.6298 6.9797,-9.2236 2.799,6.7671 -3.4604,4.0863 3.5666,4.0626 -0.2716,3.6847 2.5155,2.4919 1.6416,5.1256 0.2717,1.7833 -1.5471,0.8976 -1.2873,-1.2519 -3.7438,0.5196 -2.8935,5.0429 4.1217,6.3065 5.3382,2.3266 5.0546,5.9523 -0.2125,3.2949 -3.8855,5.3736 -1.559,3.5902 2.3739,2.8581 1.1337,5.6924 -3.4603,7.0151 -0.76887,1.57897 -10.60819,-0.67567 -3.18198,2.82842 -2.12132,3.53554 -0.88389,10.07627 2.19583,10.31971 6.12162,6.06616 1.488,5.0783 0.2244,1.925 -4.9484,8.1253 -1.2284,9.2236 z"
       id="Château-Gontier-Ouest"
       inkscape:connector-curvature="0"
       style="fill:#87aade" />
    <path
       d="m 202.047,224.1789 -8.9284,-1.488 -1.5471,7.1332 -3.3068,0.7795 -9.8377,-5.102 -9.3299,0.3189 -5.2555,1.7833 -1.8777,-2.9879 -3.4368,-0.9448 -2.9761,2.2793 -9.1763,-2.8226 -6.8144,3.5667 -11.0778,-1.7361 -1.8069,-0.3543 1.7242,-4.8539 -3.7083,-4.1453 0.035,-7.2986 -2.0549,-6.2003 -2.5746,-2.1376 -5.5507,-0.071 -4.9838,2.173 -6.4719,11.2549 -3.7201,-0.992 -4.8303,-5.657 -7.712,-0.1299 -3.4485,-1.7361 -6.6963,3.3777 2.0314,-11.3849 -2.6691,-2.7517 -1.8187,-2.8344 2.7045,-5.161 -5.8224,-18.1165 0.035,-9.5543 2.4682,-2.3974 1.4527,-7.7946 3.106,-5.0547 8.7276,-7.8536 0.685,-0.5905 12.2115,5.0546 5.6216,-7.6292 3.2359,-0.4016 3.4603,0.6732 4.228,-3.6493 5.4562,1.4054 0.8622,1.7125 -7.5702,5.716 0.1889,5.8578 4.6059,6.0349 -0.6613,1.8305 -5.1138,2.4329 -1.0392,5.716 -1.7361,0.8858 2.8934,2.2557 3.6611,0.2244 3.1415,6.4837 1.2991,-2.2912 5.5035,0.9802 4.5114,-3.2359 2.8934,2.2675 7.027,1.5235 7.2749,1.5117 6.8971,-3.3422 5.4916,1.4526 5.1728,-2.6218 9.6252,0.2598 -2.9407,4.0508 1.9368,4.5941 1.866,2.8817 7.9599,-2.8226 4.6295,7.83 -0.3543,7.3576 1.8778,3.1415 3.4013,1.3345 -0.2126,7.0388 9.2355,-0.3661 6.8852,2.7989 0.7676,1.7125 -5.4444,4.972 -3.4249,1.7833 -3.6493,6.897 2.7872,5.1728"
       id="Chailland"
       style="fill:#80ff80;fill-opacity:1" />
    <path
       vector-effect="none"
       d="m 369.1703,109.244 -7.6293,0.4015 -5.3026,-8.0189 -3.8265,-0.4724 -1.5943,-3.2714 -5.1256,-2.6809 2.2085,-6.8262 -9.6133,-1.2046 -2.9289,-7.0978 -10.8298,-2.9525 -3.047,-6.4601 8.9402,-5.3499 4.9248,1.1928 2.3147,-2.7517 -1.181,-3.3777 1.7007,-3.3422 -0.2244,-7.4521 2.5627,-4.9838 -0.248,-3.732 6.4247,3.0588 2.7753,1.7951 0.7086,3.1415 4.6177,2.3147 0.059,-7.1214 6.4482,-3.047 0.8386,-3.6965 5.7987,-7.5112 4.0862,2.7518 6.9679,1.1101 1.5235,1.0157 0.071,3.6492 5.0665,0.8858 1.488,-7.334 6.6845,-3.8855 3.0942,-4.9012 -6.2239,-7.0151 1.2165,-1.5235 3.1296,-2.1848 2.7399,-6.5546 2.5628,2.7754 5.3499,1.9014 5.0547,-1.0865 4.1099,3.8736 1.4408,2.4211 4.4051,5.7987 12.5541,8.2788 -0.437,3.6729 -8.0544,3.295 -2.2912,6.9443 -14.042,1.0865 0.7912,5.1492 -7.7946,6.8262 -3.1769,-1.7361 -3.7083,0.307 -4.913,5.35 -1.1573,7.6765 -5.0547,-1.9959 -1.7125,0.7913 -6.9915,5.9404 0.1653,1.866 4.169,6.0821 1.8778,9.9913 -8.5505,3.3304 1.4881,3.5076 -3.8855,3.9799 1.2519,5.5271 -2.0668,1.8778"
       id="Couptrain"
       style="fill:#ffaacc;fill-opacity:1" />
    <path
       d="m 156.2478,441.9199 -1.6652,0.6732 -0.2716,8.9401 -7.582,-3.6256 -12.3651,-4.1926 0.1417,-1.866 -0.8739,-3.8264 -8.1253,-5.161 -4.9366,-6.0585 -0.094,3.5666 -1.8069,0.059 -5.0429,-5.1138 -3.4485,-0.6141 -5.0074,7.1214 4.9838,2.5038 2.114,5.22 -10.0858,3.9681 -3.0588,-0.6731 -4.9247,-1.0511 -2.3502,-2.2085 3.0233,-1.9368 3.6848,-6.0822 -3.5312,-0.7794 -2.7754,-4.4878 -5.3145,-0.9566 -9.1527,-2.6219 -4.5587,-10.6644 -2.2911,-3.1887 -10.4401,-5.4916 -3.4131,-6.6018 -0.7322,-5.4208 4.5469,-2.4329 2.4092,-6.5663 12.9556,1.3463 3.3776,-3.6729 3.4249,1.0038 4.3225,-10.9124 6.401,-7.3931 0.3425,-7.6292 5.1374,0.9212 5.2554,-4.5823 7.2514,5.1255 0.8857,3.2478 3.3777,1.3463 3.2123,-0.035 0.3779,3.6375 6.0822,9.3535 3.4012,1.5235 5.0193,-1.7715 5.0901,-7.6647 6.3065,3.9799 4.3697,8.1371 -4.9247,5.4799 0.2007,5.3145 0.4842,2.2911 -0.5905,3.6139 -4.1216,3.8855 8.137,12.5422 1.559,5.8459 2.9525,2.1967 1.4054,5.5979 -0.6024,5.7043 -1.925,0.248 3.7792,10.8888"
       id="Craon"
       style="fill:#afdde9;fill-opacity:1" />
    <path
       vector-effect="none"
       d="m 176.7264,165.8021 -9.6252,-0.2598 -5.1728,2.6218 -5.4916,-1.4526 -6.8971,3.3422 -7.2749,-1.5117 -7.027,-1.5235 -2.8934,-2.2675 -4.5114,3.2359 -5.5035,-0.9802 -1.2991,2.2912 -3.1415,-6.4837 -3.6611,-0.2244 -2.8934,-2.2557 1.736,-0.8858 1.0393,-5.716 5.1138,-2.4329 0.6613,-1.8305 -4.6059,-6.0349 -0.1889,-5.8578 7.5702,-5.716 -0.8622,-1.7125 -5.4562,-1.4054 -4.228,3.6493 -3.4603,-0.6732 -3.2359,0.4016 -5.6216,7.6292 -12.2115,-5.0547 5.4798,-9.4952 -3.3658,-6.6018 -1.1929,-5.6097 1.7007,-7.3695 -3.1297,-1.7715 3.4131,-6.5191 1.4527,-0.8975 1.3935,0.1417 7.6057,1.7479 6.401,4.5704 7.7237,0.7086 6.8026,3.5903 5.7987,0.2125 3.0706,7.1333 1.6534,-0.6968 0.8503,-5.0429 5.5507,-3.8382 3.3423,-1.5589 4.7003,2.232 7.3104,-0.4842 0.7559,1.7597 3.602,1.2519 5.9168,-4.4051 5.3618,5.3145 5.716,0.4133 7.7592,-4.6177 1.2282,3.1178 -2.4565,4.7949 1.6298,5.1373 1.0275,3.3305 -3.5194,8.2197 2.1258,5.1019 0.6378,3.7084 3.543,1.0865 0.6613,7.4639 2.7399,2.5982 -13.8413,16.0262 -0.307,0.3543"
       id="Ernée"
       style="fill:#ffaacc;fill-opacity:1" />
    <path
       d="m 383.7084,246.7715 -10.4282,5.5507 -7.6765,-1.2401 -3.3422,7.1214 -5.7751,1.3464 -1.7243,-6.6845 -4.783,-5.2672 -7.3459,-0.2244 -4.2161,10.2629 -6.779,3.2831 -5.1019,2.6219 -3.7438,0.5314 -0.7794,-1.4881 -6.5192,1.5235 -9.2236,0.437 -5.0665,-2.0431 -5.1019,1.8187 -2.8226,-7.9363 -5.3263,-0.5197 -4.4287,-2.9525 -2.4447,-4.8421 0.5078,-3.5548 9.0465,-5.9168 3.3895,1.4054 3.2713,-4.1335 -0.8503,-7.4757 -6.3538,-9.5543 1.9959,-3.3304 5.4917,-2.1612 -3.8147,-11.066 -1.7715,-0.8503 9.0583,-2.74 3.1533,-6.8734 3.1769,-2.0785 13.1681,6.8734 1.5708,-3.1887 12.8847,-2.5274 11.0896,-0.2007 3.4839,1.677 2.362,5.2791 6.3774,12.2233 -1.181,7.6056 9.3535,-6.4836 7.6293,0.8857 3.5194,-1.5943 2.0313,1.2872 10.5463,-4.3106 7.5112,0.095 4.4523,5.7751 6.9089,0.8621 3.9209,3.8146 -2.8462,3.7792 -17.3607,7.6057 -5.8696,4.476 -1.3935,1.1928 0.6495,1.7124 3.3777,3.5666 -5.8578,6.6255"
       id="Évron"
       style="fill:#87deaa;fill-opacity:1" />
    <path
       vector-effect="none"
       d="m 190.8747,149.4216 -2.7399,-2.5982 -0.6614,-7.4639 -3.543,-1.0865 -0.6377,-3.7084 -2.1258,-5.1019 3.5194,-8.2197 -1.0275,-3.3305 -1.6298,-5.1373 2.4565,-4.7949 -1.2282,-3.1178 -7.7592,4.6177 -5.716,-0.4134 -5.3618,-5.3145 -5.9168,4.4052 -3.602,-1.2519 -0.7559,-1.7597 -7.3104,0.4842 -4.7003,-2.232 -3.3423,1.5589 -0.4251,-4.3107 2.8698,-7.3222 -3.98,-6.3892 4.2634,-8.5622 -2.3738,-11.3495 1.7125,-0.035 9.0228,-0.1417 4.9838,-10.4518 7.3222,-2.6809 19.274,-1.8306 1.8187,7.6529 7.4521,-5.4326 5.7869,0.2008 -0.9802,9.4362 1.8187,3.3068 3.2005,3.1769 3.1533,0.3661 -0.024,3.1532 -3.2714,0.6968 0.8621,3.4958 4.5587,2.2203 2.9171,1.9722 5.468,0.4252 -1.4881,3.3422 3.4604,1.3818 5.8223,6.897 3.6847,0.2835 4.4051,-3.047 0.874,3.791 -1.2519,3.3659 2.1731,5.4207 -1.0747,3.6375 -3.3423,2.0432 -1.7951,3.4485 -9.4716,0.059 4.535,14.609 -1.7479,5.6216 -10.7943,4.2516 -4.039,4.2397 -10.0503,5.1138 -3.2478,2.4092"
       id="Gorron"
       style="fill:#de87aa;fill-opacity:1" />
    <path
       vector-effect="none"
       d="m 308.3252,426.8621 -8.2906,-4.9129 -11.5148,-0.3543 -2.2557,-2.9053 -3.6139,-0.8149 -1.1219,-2.9525 -2.6691,-1.5116 -9.696,-1.0039 -2.9052,-2.6218 -0.4842,-7.7356 -4.5233,-10.6526 -1.3581,-1.4172 -3.9209,0.012 0.3424,-1.8541 7.1097,-1.9605 0.3424,-1.8542 -0.6259,-5.6334 -5.8105,-7.2395 -1.1338,-0.059 -0.8621,1.7006 -3.7792,0.2716 -13.5815,12.9556 -1.866,-5.3853 -5.657,-4.5823 -9.0346,2.4446 -2.2203,-5.0192 -5.2791,-0.4015 -5.0546,-5.9523 -5.3382,-2.3266 -4.1216,-6.3065 2.8934,-5.0429 3.7438,-0.5196 1.2873,1.2519 1.5471,-0.8976 -0.2717,-1.7833 -1.6415,-5.1256 -2.5156,-2.4919 7.5939,-1.1928 3.0233,-2.1376 2.3502,4.6532 6.7671,-0.6024 3.791,4.4642 6.7672,3.9091 7.4639,1.6298 0.4606,-0.1771 2.6454,-1.5826 2.6573,1.3818 1.6888,0.9802 1.5944,-1.1219 6.4482,3.8737 9.5189,-1.559 6.0939,9.9086 0.8622,-7.3104 7.9245,-5.3735 1.7479,-0.2008 4.0035,3.4485 1.4999,-3.602 3.8855,0.1889 3.4367,-1.7833 3.3068,-8.8693 3.1179,-1.7597 2.2202,6.094 2.8462,1.3699 9.2118,-4.3933 0.6614,-1.6888 5.3499,1.7124 4.7595,12.1762 1.7951,0.5196 -0.1654,2.4919 -3.1296,1.8306 -1.9841,4.9838 -5.7751,1.1101 2.2557,3.1415 0.685,5.657 -2.7517,2.669 6.8616,1.9959 0.4488,1.7951 5.3499,1.2873 1.9487,6.8853 -2.8817,4.5704 0.9212,5.1374 -13.9358,-0.6141 0.1299,6.1648 -5.3854,-1.7479 -2.8344,4.665 -6.0231,4.6295 2.4801,2.6572 2.1731,10.4164"
       id="Grez-en-Bouère"
       style="fill:#afdde9"
       inkscape:connector-curvature="0" />
    <path
       vector-effect="none"
       d="m 317.1118,160.6766 1.1574,-5.6688 -5.7278,-7.7002 3.8264,-0.3661 0.3543,-1.8896 -3.7083,-16.7229 5.1373,-5.6806 -1.8424,-3.3541 -0.1535,-0.7322 -12.9792,1.4526 0.4606,3.732 -4.2043,8.3733 -1.5708,1.0393 -9.2236,-0.9448 -4.4996,-3.0943 -5.3381,-1.24 -0.8031,-10.5463 -0.4842,-7.2868 -3.3659,1.5707 -3.4485,-0.8149 0.3071,-1.9014 4.5468,-3.0352 -0.992,-13.2508 0.933,-3.8146 1.9723,0.071 5.2318,5.7869 9.6724,0.9329 6.2357,4.2398 0.6849,-3.7319 -1.7951,-3.3659 10.9125,-1.3463 1.9368,-5.1964 9.4952,0.5787 4.6886,-9.6488 10.8298,2.9525 2.9288,7.0978 9.6134,1.2046 -2.2085,6.8262 5.1256,2.6809 1.5943,3.2714 3.8264,0.4724 5.3027,8.0189 7.6293,-0.4015 0.9094,1.4054 -1.9605,8.0662 0.2716,5.1964 -2.2321,2.0786 -1.9604,-5.3736 -7.9009,5.3972 -11.3022,-2.4801 -3.4839,16.2388 -5.8814,4.1571 -4.0154,2.2793 -4.8421,2.8935 -1.4408,6.956 -3.9682,4.0391 -4.2516,0.5787"
       id="Le Horps"
       style="fill:#e9afdd;fill-opacity:1" />
    <path
       vector-effect="none"
       d="m 138.7926,104.957 -5.5507,3.8382 -0.8503,5.0429 -1.6534,0.6968 -3.0706,-7.1333 -5.7987,-0.2125 -6.8026,-3.5903 -7.7237,-0.7086 -6.401,-4.5705 -7.6057,-1.7478 -1.3935,-0.1418 -8.9638,-20.88 0.5078,-0.6023 0.189,-1.9605 -1.2401,-7.4757 1.0629,-3.6729 5.8105,-4.9366 -0.4251,-5.1138 1.1219,-3.6256 -3.0824,-4.6295 -0.9448,-9.1174 1.2046,-5.5625 2.8935,-2.362 -0.9212,-1.6652 2.7517,-0.8857 0.9448,-2.7872 17.5143,13.4398 3.1887,2.362 11.0069,-2.6691 3.8973,-4.2043 0.8857,-5.598 3.2124,-2.0903 3.5902,1.3817 7.4521,1.2165 1.8069,7.0387 8.019,3.6729 13.428,-3.0233 5.3027,2.2911 3.0706,7.0742 5.1846,5.5035 2.0903,2.8462 -1.0392,1.488 -19.274,1.8306 -7.3222,2.6809 -4.9838,10.4518 -9.0228,0.1417 -1.7125,0.035 2.3738,11.3494 -4.2634,8.5622 3.98,6.3892 -2.8698,7.3222 0.4251,4.3107"
       id="Landivy"
       style="fill:#e9afdd;fill-opacity:1" />
    <path
       vector-effect="none"
       d="m 297.4954,92.7336 -3.7556,-0.8385 -2.8344,-6.9443 -9.696,-0.9211 -2.7635,-2.551 -1.9014,-5.468 -7.1923,-1.7715 -2.055,-2.9407 1.2519,-6.9797 -0.5669,-3.6139 -3.2359,-4.4642 0.5314,-1.7715 7.9718,1.4408 2.9407,-4.3106 2.2084,2.7163 1.8188,-0.3543 7.2395,-10.0858 6.2003,-3.0824 3.7437,-6.153 6.0113,4.0272 5.3618,0.5433 4.7594,-5.9168 5.716,0.083 1.4763,-1.122 8.1607,4.1335 -0.3779,0.4488 7.393,0.8267 2.9998,-2.1494 2.0077,2.1376 -0.6378,3.2123 0.248,3.732 -2.5627,4.9838 0.2244,7.4521 -1.7007,3.3422 1.181,3.3777 -2.3147,2.7517 -4.9248,-1.1928 -8.9402,5.3499 3.047,6.4601 -4.6886,9.6488 -9.4952,-0.5787 -1.9369,5.1964 -10.9124,1.3463"
       id="Lassay"
       style="fill:#de87aa;fill-opacity:1" />
    <path
       vector-effect="none"
       d="m 128.2581,323.4892 -1.4054,0.7913 -3.8264,-2.7872 -3.1769,2.3502 -11.7037,0.4842 -1.8188,5.4444 -7.3694,-1.6061 -3.5312,-10.9951 -5.5979,-1.5117 -0.6378,-1.8424 3.3423,-1.4644 1.488,-3.3541 -0.744,-8.9519 -4.1217,-8.704 2.2203,-3.1651 -1.5471,-7.2986 2.1376,-5.3027 2.7281,-3.9917 -1.4526,-0.8858 -5.3145,-4.8775 -2.9643,-6.6018 -0.9567,-9.259 -1.8187,-10.9833 -0.8739,-18.5299 -3.6257,-0.6378 -1.0039,-11.621 6.6963,-3.3777 3.4485,1.7361 7.712,0.1299 4.8303,5.657 3.7201,0.992 6.4719,-11.2549 4.9838,-2.173 5.5507,0.071 2.5746,2.1376 2.0549,6.2003 -0.035,7.2986 3.7083,4.1453 -1.7242,4.8539 1.8069,0.3543 11.0778,1.7361 6.8144,-3.5667 9.1763,2.8226 2.9761,-2.2793 3.4367,0.9448 1.8778,2.9879 0.4606,3.3541 -2.6336,4.1807 -5.2082,-1.7124 -0.9566,1.5589 2.114,6.8498 -0.7677,1.6652 -3.602,0.5905 3.165,6.8616 -0.4015,5.6806 -2.2675,3.0234 -9.4716,0.2244 -0.8976,1.6888 3.6729,6.3301 -1.4054,1.2991 -3.6611,-0.555 1.6534,5.4208 4.8539,5.2082 -1.9132,0.2716 -3.2832,6.9207 -3.5784,1.4054 -5.5035,5.3499 -5.3971,-1.0747 0.059,0.094 1.8778,8.9874 6.4719,2.7399 -2.0195,3.1651 -5.6216,11.7745 0.4016,3.791 -1.7243,0.7913"
       id="Loiron"
       style="fill:#5fd35f;fill-opacity:1" />
    <path
       style="fill:#de87aa"
       d="m 258.6639,130.006 2.4683,-5.1138 -4.0862,-7.8654 4.9838,-5.409 3.4485,0.9094 5.22,-1.7243 3.4485,0.8149 3.3659,-1.5707 0.4842,7.2867 0.8031,10.5464 5.3381,1.24 4.4996,3.0942 9.2236,0.9448 1.5708,-1.0392 4.2043,-8.3733 -0.4606,-3.732 12.9792,-1.4526 0.1535,0.7322 1.8424,3.354 -5.1373,5.6807 3.7083,16.7229 -0.3543,1.8896 -3.8264,0.3661 5.7278,7.7001 -1.1574,5.6688 -1.0983,2.9525 -2.858,1.6889 -12.2352,5.4208 -7.5111,-1.7833 -3.5312,-4.4997 -1.122,1.4054 -4.8421,-1.8778 -3.9918,3.2714 -0.3661,5.8223 2.3148,3.1769 0.3425,3.8973 -4.2634,4.0745 -6.2357,4.4524 -7.5702,-0.2481 -3.3895,6.035 0.7558,5.1019 1.2283,5.7278 3.2123,4.8539 -0.5433,1.8778 -4.2516,5.9641 3.2478,4.2752 0.1417,5.6216 -7.4757,-0.8149 -4.8775,-2.8699 -3.7673,0.2244 -1.7951,-2.9288 -3.1887,0.9093 -16.9473,-2.8816 -2.4447,2.7045 1.9959,2.9407 -0.1889,5.3027 -1.6889,0.6023 -6.3892,-2.5982 0.7204,-1.9487 -0.071,-1.925 -4.3579,-3.5194 -0.4724,-5.4798 -5.35,-2.1022 -1.9132,-3.1769 5.4444,-4.972 3.2124,-5.3381 1.051,-2.6337 3.1887,-2.0903 1.3464,-7.2514 3.2005,-1.9841 5.7278,-1.2754 3.8265,-4.1572 3.6847,-0.7794 0.7913,-5.5507 0.9566,-6.5309 3.047,-1.311 4.9484,-2.9643 0.31955,-3.93795 4.62321,-6.12532 3.36651,-7.63074 0.51518,-4.5055 -2.38048,-2.53918 0,-3.41202 -1.14404,-4.16534 5.62179,0.47307 z"
       id="Mayenne-Est"
       inkscape:connector-curvature="0" />
    <path
       style="fill:#e9afdd"
       d="m 247.8344,122.8137 1.8187,-3.3068 -1.677,-9.2236 1.3345,-7.4285 -3.2123,1.6416 -6.4483,-4.1571 -0.555,-7.6529 -3.6966,-4.2989 -1.6652,1.0157 -3.6257,2.0077 0.874,3.791 -1.2519,3.3659 2.1731,5.4208 -1.0747,3.6374 -3.3423,2.0432 -1.7951,3.4485 -9.4716,0.059 4.535,14.609 -1.7478,5.6216 -10.7944,4.2516 -4.039,4.2398 -10.0503,5.1137 -3.2478,2.4092 -13.8413,16.0262 -0.307,0.3543 -2.9407,4.0508 1.9368,4.5941 1.866,2.8817 7.9599,-2.8226 4.6295,7.83 -0.3543,7.3576 1.8778,3.1415 3.4013,1.3345 -0.2126,7.0388 9.2355,-0.3661 6.8852,2.7989 0.7675,1.7125 3.2122,-5.3381 1.0511,-2.6337 3.1887,-2.0903 1.3464,-7.2514 3.2005,-1.9841 5.7278,-1.2754 3.8265,-4.1572 3.6847,-0.7794 0.7913,-5.5507 0.9566,-6.5309 3.047,-1.311 4.9483,-2.9643 0.31965,-3.93795 4.62321,-6.12532 3.36651,-7.63074 0.51518,-4.5055 -2.38048,-2.53918 0,-3.41202 -1.13671,-4.16927 z"
       id="Mayenne-Ouest"
       inkscape:connector-curvature="0" />
    <path
       d="m 329.7721,359.6278 0.1654,-2.4919 -1.7951,-0.5196 -4.7595,-12.1762 -5.3499,-1.7124 -0.6614,1.6888 -9.2118,4.3933 -2.8462,-1.3699 -2.2202,-6.094 -3.1179,1.7597 -3.3068,8.8693 -3.4367,1.7833 -3.8855,-0.1889 -1.4999,3.602 -4.0035,-3.4485 -1.7479,0.2008 -7.9245,5.3735 -0.8622,7.3104 -6.0939,-9.9086 -9.5189,1.559 -6.4482,-3.8737 -1.5944,1.1219 -1.6888,-0.9802 -2.6573,-1.3818 -2.6454,1.5826 -0.4606,0.1771 -7.4639,-1.6298 -6.7672,-3.9091 -3.791,-4.4642 -6.7671,0.6024 -2.3502,-4.6532 -1.5825,-2.9761 1.677,-8.1607 3.4721,0.3779 14.8924,-7.6883 8.3851,-2.4919 0.4252,-7.2277 -11.0896,-3.5194 -0.2598,-1.9487 5.5861,-10.1684 5.4208,-4.3815 7.1214,-0.4133 4.7949,3.2123 3.5666,-6.6845 9.2591,-1.4762 1.1455,1.5589 -0.5905,5.7278 1.5117,1.2165 5.3027,-5.0075 11.5266,3.1061 9.6487,6.3301 -0.803,9.5425 3.0942,2.2911 5.8223,-0.1181 2.3148,-1.8069 4.1689,1.4881 10.5109,8.0898 2.2321,5.2437 6.0113,2.6572 0.9212,3.2123 3.6374,-0.4369 2.5156,-2.8581 5.5034,0.6496 2.3738,-2.9053 3.8147,0.248 2.2202,-3.0824 7.3459,-1.1574 3.0351,-2.232 0.1772,-0.024 -1.5826,2.5038 0,3.7673 4.2753,10.0858 -0.5787,5.5625 4.4169,3.1769 2.9879,2.0785 -0.2007,1.8188 -6.7553,5.9522 -5.2791,1.5235 -3.236,2.6573 -3.85,-0.9094 -3.236,2.1848 -17.3607,0.189"
       id="Meslay"
       style="fill:#5fd35f;fill-opacity:1" />
    <path
       vector-effect="none"
       d="m 285.6264,293.9052 -11.5266,-3.1061 -5.3027,5.0075 -1.5117,-1.2165 0.5905,-5.7278 -1.1455,-1.5589 -9.2591,1.4762 -3.5666,6.6845 -4.7949,-3.2123 -0.6849,-5.5625 2.8344,-8.7749 2.0785,-3.1532 5.6452,-0.1536 8.1961,4.6768 2.1377,-2.9998 0.248,-3.7555 -4.8185,-0.4606 -1.8778,-2.858 -16.2506,-15.9081 -0.3661,-5.3972 0.7795,-1.4408 -2.7636,-1.5471 -0.307,-3.047 5.3617,-0.6141 -3.543,-6.2711 2.6455,-10.5582 3.7674,-0.2244 4.8775,2.8699 7.4757,0.8149 -0.1417,-5.6216 -3.2478,-4.2752 4.2516,-5.9641 0.5433,-1.8778 -3.2123,-4.8539 -1.2283,-5.7278 -0.7558,-5.1019 3.3895,-6.035 7.5702,0.2481 6.2357,-4.4524 0.7086,7.4521 1.9604,2.8934 5.3263,1.7597 5.0193,5.4208 1.0275,-0.3188 1.7715,0.8503 3.8146,11.066 -5.4917,2.1612 -1.9959,3.3304 6.3538,9.5543 0.8503,7.4757 -3.2713,4.1335 -3.3895,-1.4054 -9.0465,5.9168 -0.5078,3.5548 2.4447,4.8421 4.4287,2.9525 5.3263,0.5197 2.8226,7.9363 -2.7871,0.933 -1.6062,4.7949 -9.507,8.9519 3.3776,5.7869 0.047,9.1174"
       id="Montsûrs"
       style="fill:#80ff80;fill-opacity:1" />
    <path
       vector-effect="none"
       d="m 463.544,112.5626 -2.1612,2.4329 -3.4367,-0.3307 -3.6847,4.1335 -4.9366,-2.6573 -7.4049,-0.083 -5.3027,-2.5037 -2.2085,-3.0706 -13.2508,-3.2596 -4.8421,-8.3261 -5.2672,-1.7715 -7.1923,1.8896 -1.2991,-3.7555 3.5193,-6.4247 -3.602,-1.24 -4.5823,3.295 -16.9591,0.1299 -1.8778,-9.9913 -4.169,-6.0821 -0.1653,-1.866 6.9915,-5.9404 1.7125,-0.7913 5.0546,1.9959 1.1574,-7.6765 4.913,-5.35 3.7083,-0.307 3.1769,1.736 7.7946,-6.8261 -0.7913,-5.1492 14.0421,-1.0865 1.7361,-0.4016 3.6139,3.8855 0.5668,3.4722 1.7125,6.3301 -1.2873,1.0747 1.8778,3.0588 -0.5905,7.1569 3.9918,3.4958 10.9006,3.1178 10.4164,-0.5315 1.807,-0.2125 1.4644,-3.236 3.4958,-0.1063 4.2752,3.484 -2.114,11.125 -0.9094,0.8031 0.685,19.9353 -1.4881,2.9761 0.9094,3.4485"
       id="Pré-en-Pail"
       style="fill:#e9afdd;fill-opacity:1" />
    <path
       vector-effect="none"
       d="m 91.8479,439.5815 -3.3895,-0.8385 -1.8896,-3.1887 -4.9248,1.8069 -3.6492,-0.9093 -11.8219,-1.6062 -0.2125,-0.1417 -3.7084,-1.1928 -2.5864,-2.9289 -17.526,-3.047 0.6141,4.724 -1.2164,1.0275 -9.1055,-2.8226 -4.6414,-3.4722 -5.6806,-1.181 -2.114,-5.1727 -3.6965,-1.0511 -1.9841,-3.3186 -8.5032,-4.6414 2.3148,-5.2554 3.6375,0.5196 3.1651,-9.4244 0.9093,-3.5193 -2.7517,-4.5351 3.602,-3.6493 3.7674,0.4134 5.5271,-5.7869 -2.7871,-6.4837 0.3306,-3.6611 2.0195,-2.9407 6.2003,-3.4249 0.5669,-7.3694 2.7871,-2.3856 2.4447,-6.9325 -1.3345,-3.484 3.0233,-2.669 9.7787,-0.094 1.0393,7.1569 2.9761,2.1021 7.1805,-0.2598 2.4801,-2.3856 0.9212,-4.9838 5.3027,1.9722 5.3263,-1.2991 5.1964,4.4878 3.0233,2.1613 7.3577,1.5825 4.3106,3.6139 -0.3425,7.6292 -6.401,7.3931 -4.3225,10.9124 -3.4249,-1.0038 -3.3776,3.6729 -12.9556,-1.3464 -2.4092,6.5664 -4.5469,2.4329 0.7322,5.4208 3.4131,6.6018 10.4401,5.4916 2.2911,3.1887 4.5587,10.6644 9.1527,2.6219 5.3145,0.9566 2.7754,4.4878 3.5312,0.7794 -3.6848,6.0822 -3.0233,1.9368"
       id="Saint-Aignan-sur-Roë"
       style="fill:#87aade;fill-opacity:1" />
    <path
       vector-effect="none"
       d="m 359.9939,319.0605 -3.0351,2.2321 -7.3459,1.1573 -2.2202,3.0824 -3.8147,-0.248 -2.3738,2.9053 -5.5034,-0.6496 -2.5156,2.8581 -3.6374,0.4369 -0.9212,-3.2123 -6.0113,-2.6572 -2.2321,-5.2437 -10.5109,-8.0898 -4.1689,-1.4881 -2.3148,1.8069 -5.8223,0.1181 -3.0942,-2.2911 0.803,-9.5425 -9.6487,-6.3301 -0.047,-9.1174 -3.3776,-5.7869 9.507,-8.9519 1.6062,-4.7949 2.7871,-0.933 5.102,-1.8187 5.0664,2.0431 9.2237,-0.437 6.5191,-1.5235 0.7794,1.4881 3.7438,-0.5314 5.1019,-2.6219 6.779,-3.2831 4.2161,-10.2629 7.3459,0.2244 4.783,5.2672 1.7243,6.6845 5.7751,-1.3464 3.3422,-7.1214 7.6765,1.2401 10.4282,-5.5507 3.295,0.5668 1.2164,4.972 6.7081,2.6455 -0.024,3.2005 2.2911,2.2203 -0.9211,3.7437 -6.2948,4.5705 -0.4251,1.9132 -0.4842,5.7633 4.6885,3.3422 -1.1337,3.7202 -2.1495,7.0151 -3.2595,-1.8305 -12.8257,-1.8896 -4.5704,3.2005 1.181,1.2282 -1.6653,1.0984 -11.1958,4.2043 -5.102,-2.7517 -3.9445,3.3776 1.9841,6.6255 -1.866,11.2431 10.7825,4.1099"
       id="Sainte-Suzanne"
       style="fill:#aaffaa;fill-opacity:1" />
    <path
       d="m 189.1741,336.433 -7.3813,0.3661 -5.6451,3.8855 -21.447,0.4842 -5.5271,7.393 -5.6806,2.7636 2.9879,-10.7117 -3.6729,-0.685 -6.0467,-4.5704 0.1535,-1.9014 3.2242,-1.7952 0.3897,-1.7478 -2.5273,-2.4683 -9.7433,-3.9564 1.7243,-0.7913 -0.4016,-3.791 5.6216,-11.7745 2.0195,-3.1651 -6.4719,-2.7399 -1.8778,-8.9874 -0.059,-0.094 5.3971,1.0747 5.5035,-5.3499 3.5784,-1.4054 3.2832,-6.9207 1.9132,-0.2716 -4.8539,-5.2082 -1.6534,-5.4208 3.6611,0.555 1.4054,-1.2991 -3.6729,-6.3301 0.8976,-1.6889 9.4716,-0.2243 2.2675,-3.0234 0.4015,-5.6806 3.0825,1.9132 6.2947,8.9402 5.905,4.4878 0.1181,3.6138 4.535,2.9644 -0.8739,7.6528 2.2203,3.1297 -5.2437,7.8891 4.0981,2.3029 13.0146,-1.5471 5.9404,8.8103 3.3659,9.0346 -1.1456,11.2313 3.8619,2.4919 0.2244,1.7125 -6.9797,9.2236 -5.657,1.6298"
       id="Saint-Berthevin"
       style="fill:#87deaa"
       inkscape:connector-curvature="0" />
    <path
       d="m 223.6947,465.41 -5.8577,-4.3933 -7.5821,0.2362 -7.1922,-2.6219 -3.5431,1.4527 -4.9247,-0.8031 1.2282,-9.2236 4.9484,-8.1253 -0.2244,-1.925 -1.488,-5.0783 -6.12142,-6.06616 -2.19563,-10.31971 0.88389,-10.07627 2.12132,-3.53554 3.18198,-2.82842 10.60819,0.67566 0.76887,-1.57896 3.4603,-7.0151 -1.1337,-5.6925 -2.3738,-2.858 1.5589,-3.5902 3.8855,-5.3736 0.2125,-3.295 5.2791,0.4016 2.2203,5.0192 9.0346,-2.4446 5.657,4.5822 1.866,5.3854 -1.0275,6.0349 -0.3306,0.2244 -0.4724,7.6765 2.9525,9.2236 -0.3071,5.7987 -4.3461,3.3068 -1.3817,5.0429 -3.4249,1.3818 -6.4483,8.9283 -1.8542,-0.1299 -1.2046,6.9325 -1.8778,0.4488 -4.287,6.212 1.618,1.0511 5.6451,-1.1928 3.2124,2.0077 0.9566,5.716 4.1689,3.8029 -2.9407,4.783 -2.9289,1.8424"
       id="Château-Gontier-Est"
       inkscape:connector-curvature="0"
       style="fill:#87cdde" />
    <path
       d="m 204.4444,344.1803 0.2717,-3.6847 -3.5667,-4.0626 3.4604,-4.0863 -2.799,-6.7671 -0.2244,-1.7125 -3.8619,-2.4919 1.1456,-11.2313 -3.36576,-9.0346 -6.00426,-8.88732 -3.99791,-6.60504 -0.002,-8.89496 7.48933,1.01365 8.51058,-12.51365 3.4641,1.39032 -3.9641,8.60968 -4.50908,7.9135 2.90079,13.62481 5.22981,-1.40249 0.1299,0.024 4.8539,5.468 -2.0786,4.6768 3.0706,1.9723 3.543,-0.8267 3.3895,4.5232 -0.3779,5.7633 2.6572,4.8657 -4.6531,7.8891 -1.677,8.1607 1.5825,2.9761 -3.0233,2.1376 -7.5939,1.1928"
       id="Laval-Est"
       inkscape:connector-curvature="0"
       style="fill:#80ff80" />
    <path
       d="m 177.6948,283.6541 -5.2437,7.8891 4.0981,2.3029 12.9508,-1.62412 -3.99783,-6.60504 -0.002,-8.89496 -10.00009,4 z"
       id="Laval-Sud-Ouest"
       inkscape:connector-curvature="0"
       style="fill:#aaffaa" />
    <path
       d="m 420.721,191.0283 -14.1839,-6.1531 -1.4408,-3.5666 1.429,-7.7119 -1.0511,-1.6652 -5.4326,1.1219 -2.9525,-2.3856 -3.7792,-0.1063 -3.85,-3.9681 -11.2077,-0.2008 -2.2675,-4.8539 2.6927,-6.6136 -3.3305,-1.6888 -9.1291,1.7242 -0.7322,-1.7361 -2.0786,0.6968 -3.85,-4.4405 -3.9446,0.083 -11.5265,-0.992 -8.456,-4.6413 5.8814,-4.1571 3.4839,-16.2388 11.3022,2.4801 7.9009,-5.3972 1.9604,5.3736 2.2321,-2.0786 -0.2716,-5.1964 1.9605,-8.0662 -0.9094,-1.4054 2.0667,-1.8778 -1.2518,-5.5271 3.8855,-3.9799 -1.4881,-3.5076 8.5505,-3.3304 16.9591,-0.1299 4.5823,-3.295 3.6021,1.24 -3.5194,6.4247 1.2991,3.7555 7.1923,-1.8896 5.2672,1.7715 4.8421,8.3261 13.2508,3.2596 2.2085,3.0706 5.3027,2.5037 -2.1258,3.2595 -7.1214,2.8226 0.9448,9.5661 3.7674,4.2871 -9.5071,-3.6375 -2.9171,1.9604 -0.992,3.2596 0.6968,11.4793 2.421,0.189 2.1495,3.1532 1.0747,7.5821 -3.6375,4.3224 -1.3936,5.3027 0.3779,0.6614 -5.8341,9.3299 0.8976,11.4321"
       id="Villaines-la-Juhel"
       style="fill:#de87aa;fill-opacity:1" />
  </g>
  <g
     inkscape:groupmode="layer"
     id="layer1"
     inkscape:label="Arrondissements"
     style="font-size:45.83330154px;font-style:normal;font-weight:400;fill:none;stroke:#000000;stroke-width:3;stroke-linecap:square;stroke-linejoin:bevel;stroke-miterlimit:4;stroke-opacity:1;stroke-dasharray:none;display:inline;font-family:Ubuntu">
    <path
       style="display:inline"
       id="Arrt Château-Gontier"
       d="m 316.30871,451.73403 -7.15686,-1.42901 -9.5661,5.17278 -2.69268,-5.03106 -6.7317,-6.44826 -9.93221,-4.94839 -4.75943,-1.02747 -0.89756,1.38177 1.00385,9.15275 -5.905,9.25904 -10.18022,-4.22798 -4.88934,1.86598 -4.22798,-2.82259 -10.42823,12.23516 -13.32168,-1.2991 -2.92888,1.84236 -5.85776,-4.39332 -7.58202,0.2362 -7.19229,-2.62182 -3.543,1.45263 -4.92477,-0.80308 -3.29499,1.22824 -3.53119,-1.39358 -3.43671,-6.4955 -1.75969,-0.69679 -7.26315,1.79512 -1.98408,-5.13735 -8.27881,-3.83825 -1.47625,-3.36585 -7.3222,0.54326 -1.66521,0.67317 -0.27163,8.94017 -7.58202,-3.62567 -12.36507,-4.19255 0.14172,-1.86598 -0.87394,-3.82644 -8.12528,-5.16097 -4.93658,-6.05853 -0.0945,3.56662 -1.80693,0.0591 -5.04287,-5.11373 -3.44852,-0.61412 -5.00744,7.12143 4.98382,2.50372 2.11399,5.22002 -10.08574,3.96816 -3.05879,-0.67317 -4.92477,-1.05109 -2.35019,-2.20847 -3.38947,-0.83851 -1.8896,-3.1887 -4.92477,1.80693 -3.64929,-0.90937 -11.82181,-1.60616 -0.21258,-0.14172 -3.70834,-1.19281 -2.58639,-2.92888 -17.52604,-3.04698 0.61412,4.724 -1.21643,1.02747 -9.10551,-2.82259 -4.64133,-3.47214 -5.68061,-1.181 -2.11399,-5.17278 -3.69653,-1.05109 -1.98408,-3.31861 -8.5032,-4.64133 2.31476,-5.25545 3.63748,0.51964 3.16508,-9.42438 0.90937,-3.51938 -2.75173,-4.53504 3.60205,-3.64929 3.76739,0.41335 5.52708,-5.7869 -2.78716,-6.48369 0.33068,-3.6611 2.01951,-2.94069 6.20025,-3.4249 0.56688,-7.36944 2.78716,-2.38562 2.44467,-6.93247 -1.33453,-3.48395 3.02336,-2.66906 -0.27163,-7.70012 2.25571,-6.31835 2.91707,-1.96046 7.14505,-1.2991 3.29499,-8.39691 5.60975,-1.02747 5.40898,1.05109 5.25545,2.0077 3.6611,1.00385 6.99152,-0.5905 7.68831,-3.99178 0.63774,1.84236 5.59794,1.51168 3.53119,10.99511 7.36944,1.60616 1.81874,-5.44441 11.70371,-0.48421 3.17689,-2.35019 3.82644,2.78716 1.40539,-0.79127 9.74325,3.95635 2.52734,2.46829 -0.38973,1.74788 -3.22413,1.79512 -0.15353,1.90141 6.04672,4.57047 3.67291,0.68498 -2.98793,10.71167 5.68061,-2.76354 5.52708,-7.39306 21.44696,-0.48421 5.64518,-3.88549 7.38125,-0.36611 5.65699,-1.62978 6.97971,-9.22361 2.79897,6.76713 -3.46033,4.08626 3.56662,4.06264 -0.27163,3.68472 7.59383,-1.19281 3.02336,-2.13761 2.35019,4.65314 6.76713,-0.60231 3.79101,4.46418 6.76713,3.90911 7.46392,1.62978 0.46059,-0.17715 2.64544,-1.58254 2.65725,1.38177 1.68883,0.98023 1.59435,-1.12195 6.44826,3.87368 9.51886,-1.55892 6.09396,9.90859 0.86213,-7.31039 7.92451,-5.37355 1.74788,-0.20077 4.00359,3.44852 1.49987,-3.60205 3.88549,0.18896 3.43671,-1.78331 3.3068,-8.86931 3.11784,-1.75969 2.22028,6.09396 2.84621,1.36996 9.2118,-4.39332 0.66136,-1.68883 5.34993,1.71245 4.75943,12.17611 1.79512,0.51964 -0.16534,2.49191 -3.12965,1.83055 -1.98408,4.98382 -5.77509,1.11014 2.25571,3.14146 0.68498,5.65699 -2.75173,2.66906 6.86161,1.99589 0.44878,1.79512 5.34993,1.28729 1.94865,6.88523 -2.88164,4.57047 0.92118,5.13735 -13.9358,-0.61412 0.12991,6.16482 -5.38536,-1.74788 -2.8344,4.66495 -6.0231,4.62952 2.4801,2.65725 2.17304,10.41642 6.27111,3.83825 10.90063,-1.00385 0.36611,0.60231 2.13761,12.36507 1.20462,9.24723 -2.33838,2.88164 -0.69679,-3.72015 -9.40076,-6.48369 -1.8896,-0.3543 1.42901,7.49935" />
    <path
       d="m 116.34375,128.75 -4.21875,3.65625 -3.46875,-0.6875 -3.25,0.40625 -5.625,7.625 -12.1875,-5.0625 -0.6875,0.59375 -8.75,7.84375 -3.09375,5.0625 -1.4375,7.8125 -2.46875,2.375 -0.0625,9.5625 5.84375,18.125 -2.71875,5.15625 1.8125,2.84375 2.6875,2.75 -2.03125,11.375 1,11.625 3.625,0.625 0.875,18.53125 1.8125,11 0.96875,9.25 2.96875,6.59375 5.3125,4.875 1.4375,0.90625 -2.71875,3.96875 -2.125,5.3125 1.53125,7.3125 -2.21875,3.15625 4.125,8.6875 0.75,8.96875 -1.5,3.34375 -3.34375,1.46875 0.65625,1.84375 5.59375,1.5 3.53125,11 7.34375,1.625 1.84375,-5.46875 11.6875,-0.46875 3.1875,-2.34375 3.8125,2.78125 1.40625,-0.78125 9.75,3.9375 2.53125,2.46875 -0.40625,1.75 -3.21875,1.8125 -0.15625,1.875 6.0625,4.59375 3.65625,0.6875 -2.96875,10.6875 5.6875,-2.75 5.5,-7.40625 21.46875,-0.46875 5.625,-3.875 7.40625,-0.375 5.65625,-1.625 6.96875,-9.21875 2.8125,6.75 -3.46875,4.09375 3.5625,4.0625 -0.28125,3.6875 7.59375,-1.1875 3.03125,-2.15625 2.34375,4.65625 6.78125,-0.59375 3.78125,4.46875 6.78125,3.90625 7.4375,1.625 0.46875,-0.1875 2.65625,-1.5625 2.65625,1.375 1.6875,0.96875 1.59375,-1.125 6.4375,3.875 9.53125,-1.5625 6.09375,9.90625 0.84375,-7.28125 7.9375,-5.375 1.75,-0.21875 4,3.4375 1.5,-3.59375 3.875,0.1875 3.4375,-1.78125 3.3125,-8.875 3.125,-1.75 2.21875,6.09375 2.84375,1.375 9.21875,-4.40625 0.65625,-1.6875 5.34375,1.71875 4.78125,12.1875 1.78125,0.5 -0.15625,2.5 17.34375,-0.1875 3.25,-2.1875 3.84375,0.90625 3.25,-2.65625 5.25,-1.53125 6.78125,-5.9375 0.1875,-1.8125 -3,-2.09375 -4.40625,-3.15625 0.59375,-5.5625 -4.28125,-10.09375 0,-3.78125 1.5625,-2.5 -0.15625,0.0312 -10.78125,-4.125 1.84375,-11.21875 -1.96875,-6.625 3.9375,-3.375 5.09375,2.75 11.21875,-4.21875 1.65625,-1.09375 -1.1875,-1.21875 4.5625,-3.21875 12.84375,1.90625 3.25,1.8125 2.15625,-7 1.125,-3.71875 -4.6875,-3.34375 0.5,-5.78125 0.40625,-1.90625 6.3125,-4.5625 0.90625,-3.75 -2.28125,-2.21875 0.0312,-3.1875 -6.71875,-2.65625 -1.21875,-4.96875 -3.28125,-0.5625 5.84375,-6.625 -3.375,-3.5625 -0.65625,-1.71875 1.40625,-1.1875 5.875,-4.5 L 410.1562,221.5937 413,217.8125 409.09375,214 l -6.90625,-0.875 -4.46875,-5.75 -7.5,-0.0937 -10.5625,4.28125 -2.03125,-1.28125 -3.5,1.59375 -7.625,-0.875 -9.375,6.46875 1.1875,-7.59375 -6.375,-12.21875 -2.375,-5.28125 -3.46875,-1.6875 L 335,190.9063 l -12.875,2.53125 -1.5625,3.1875 -13.1875,-6.875 -3.15625,2.0625 -3.15625,6.875 -9.0625,2.75 -1.03125,0.3125 -5.03125,-5.40625 -5.3125,-1.78125 -1.96875,-2.875 -0.71875,-7.46875 -6.21875,4.46875 -7.5625,-0.25 -3.40625,6.03125 0.75,5.09375 1.25,5.71875 3.1875,4.875 -0.53125,1.875 -4.25,5.96875 3.25,4.28125 0.125,5.59375 -7.46875,-0.8125 -4.875,-2.875 -3.75,0.25 -1.8125,-2.9375 -3.1875,0.90625 -16.9375,-2.875 -2.4375,2.6875 1.96875,2.9375 -0.1875,5.3125 -1.6875,0.59375 -6.375,-2.59375 0.71875,-1.9375 -0.0625,-1.9375 -4.375,-3.5 -0.46875,-5.5 -5.34375,-2.0938 -1.90625,-3.1875 5.4375,-4.96875 -0.78125,-1.6875 -6.875,-2.8125 -9.25,0.375 0.21875,-7.0625 -3.40625,-1.3125 -1.875,-3.15625 0.375,-7.34375 -4.625,-7.84375 -7.96875,2.84375 -1.875,-2.90625 -1.9375,-4.59375 2.9375,-4.03125 -9.625,-0.28125 -5.15625,2.625 -5.5,-1.4375 -6.90625,3.34375 -7.28125,-1.53125 -7,-1.5 -2.90625,-2.28125 -4.5,3.25 -5.5,-1 -1.3125,2.3125 -3.15625,-6.5 -3.65625,-0.21875 -2.875,-2.25 1.71875,-0.90625 1.03125,-5.71875 5.125,-2.40625 0.65625,-1.84375 -4.59375,-6.03125 -0.1875,-5.875 7.5625,-5.6875 -0.84375,-1.71875 -5.46875,-1.40625 z"
       id="Arrt Laval" />
    <path
       d="m 397.78125,5.8125 -2.75,6.5625 -3.125,2.1875 -1.21875,1.5 6.25,7.03125 -3.09375,4.90625 -6.6875,3.875 -1.5,7.34375 -5.0625,-0.90625 -0.0625,-3.625 L 379,33.65625 l -6.96875,-1.09375 -4.09375,-2.75 -5.78125,7.5 -0.84375,3.6875 -6.46875,3.0625 -0.0312,7.125 -4.625,-2.3125 -0.71875,-3.15625 -2.78125,-1.78125 -6.40625,-3.0625 0.625,-3.21875 -2,-2.15625 -3,2.15625 -7.40625,-0.8125 0.375,-0.46875 -8.15625,-4.125 -1.46875,1.125 -5.71875,-0.09375 -4.75,5.9375 -5.375,-0.5625 -6,-4.03125 -3.75,6.15625 -6.1875,3.09375 -7.25,10.09375 -1.8125,0.34375 -2.21875,-2.71875 -2.9375,4.3125 -7.96875,-1.4375 -0.375,-0.96875 -7.46875,6.34375 -15.5,8.28125 0.34375,-5.25 -1.03125,-11.75 -3.65625,-6.65625 -0.1875,1.75 -1.75,-0.28125 -3.84375,3.5625 -0.125,3.5 -1.65625,0.625 -3.625,0.5625 -1.96875,-2.75 -5.15625,1.1875 -3,-1.90625 -2.90625,2.34375 -1.09375,3.6875 6.875,6.75 -15.4375,7.09375 -3.15625,-0.375 -3.21875,-3.15625 -1.8125,-3.3125 1,-9.4375 -5.8125,-0.21875 -7.4375,5.4375 -1.8125,-7.65625 1.03125,-1.46875 -2.09375,-2.84375 -5.1875,-5.53125 -3.0625,-7.0625 -5.3125,-2.28125 -13.40625,3 L 145.4063,32.03125 143.5938,25 l -7.4375,-1.21875 -3.59375,-1.375 -3.21875,2.0625 -0.875,5.625 -3.90625,4.1875 -11,2.6875 -3.1875,-2.375 -17.53125,-13.4375 -0.9375,2.78125 -2.75,0.875 0.90625,1.6875 -2.875,2.34375 -1.21875,5.5625 0.96875,9.125 3.0625,4.625 -1.125,3.625 0.4375,5.125 -5.8125,4.9375 -1.0625,3.65625 1.25,7.5 -0.1875,1.9375 -0.53125,0.625 8.96875,20.875 -1.4375,0.875 -3.4375,6.53125 L 90.2188,105.625 88.5,113 l 1.1875,5.59375 3.375,6.59375 -5.46875,9.5 12.1875,5.0625 5.625,-7.625 3.25,-0.40625 3.46875,0.6875 4.21875,-3.65625 5.46875,1.40625 0.84375,1.71875 -7.5625,5.6875 0.1875,5.875 4.59375,6.03125 -0.65625,1.84375 -5.09375,2.40625 -1.0625,5.71875 -1.71875,0.90625 2.875,2.25 3.65625,0.21875 3.15625,6.5 1.3125,-2.3125 5.5,1 4.5,-3.25 2.90625,2.28125 7,1.5 7.28125,1.53125 6.90625,-3.34375 5.5,1.4375 5.15625,-2.625 9.625,0.28125 -2.9375,4.03125 1.9375,4.59375 1.875,2.90625 7.96875,-2.84375 4.625,7.84375 -0.375,7.34375 1.875,3.15625 3.40625,1.3125 -0.21875,7.0625 9.25,-0.375 6.875,2.8125 0.78125,1.6875 -5.4375,4.96875 1.90625,3.1875 5.34375,2.09375 0.46875,5.5 4.375,3.5 0.0625,1.9375 -0.71875,1.9375 6.375,2.59375 1.6875,-0.59375 0.1875,-5.3125 -1.96875,-2.9375 2.4375,-2.6875 16.9375,2.875 3.1875,-0.90625 1.8125,2.9375 3.75,-0.25 4.875,2.875 7.46875,0.8125 -0.125,-5.59375 -3.25,-4.28125 4.25,-5.96875 0.53125,-1.875 -3.1875,-4.875 -1.25,-5.71875 -0.75,-5.09375 3.40625,-6.03125 7.5625,0.25 6.21875,-4.46875 0.71875,7.46875 1.96875,2.875 5.3125,1.78125 5.03125,5.40625 1.03125,-0.3125 9.0625,-2.75 3.15625,-6.875 3.15625,-2.0625 13.1875,6.875 1.5625,-3.1875 12.875,-2.53125 11.09375,-0.21875 3.46875,1.6875 2.375,5.28125 6.375,12.21875 -1.1875,7.59375 L 366.5,211 l 7.625,0.875 3.5,-1.59375 2.03125,1.28125 10.5625,-4.28125 7.5,0.0937 4.46875,5.75 6.90625,0.875 3.90625,3.8125 5.4375,-4.9375 6.8125,-2.75 -1.9375,-5.03125 2.84375,-4.40625 -5.4375,-9.65625 -0.90625,-11.4375 5.84375,-9.3125 -0.375,-0.6875 1.40625,-5.28125 3.625,-4.34375 -1.0625,-7.5625 -2.15625,-3.15625 -2.4375,-0.1875 -0.6875,-11.5 1,-3.25 2.90625,-1.96875 9.5,3.65625 -3.75,-4.28125 -0.9375,-9.5625 7.09375,-2.84375 2.125,-3.25 7.40625,0.0937 4.9375,2.65625 3.6875,-4.15625 3.4375,0.34375 2.15625,-2.4375 -0.90625,-3.4375 1.5,-3 -0.6875,-19.9375 0.90625,-0.78125 2.125,-11.125 -4.28125,-3.5 -3.5,0.125 -1.46875,3.21875 -1.8125,0.21875 L 445,74.875 434.09375,71.75 l -3.96875,-3.5 0.5625,-7.15625 -1.875,-3.03125 1.3125,-1.09375 -1.71875,-6.3125 -0.5625,-3.5 -3.625,-3.875 -1.75,0.40625 2.3125,-6.9375 8.03125,-3.3125 L 433.25,29.78125 420.71875,21.5 416.3125,15.6875 414.875,13.28125 410.75,9.40625 405.6875,10.5 400.34375,8.59375 397.78125,5.8125 z"
       id="Arrt Mayenne" />
  </g>
  <g
     inkscape:groupmode="layer"
     id="layer2"
     inkscape:label="Noms"
     style="font-size:9px;text-anchor:middle;fill:#000000;stroke:#ffffff;stroke-width:0.2;font-family:DejaVu Sans">
    <text
       xml:space="preserve"
       x="185"
       y="267"
       id="text3138"
       style="font-size:12px;font-weight:bold"><tspan
         id="tspan3140">Laval-</tspan></text>
    <text
       style="font-size:11px;font-weight:bold"
       id="text3146"
       y="399"
       x="193"
       xml:space="preserve"><tspan
         id="tspan3148">Château-Gontier-</tspan></text>
    <text
       xml:space="preserve"
       x="253"
       y="147"
       id="text3150"
       style="font-size:11px;font-weight:bold"><tspan
         id="tspan3152">Mayenne-</tspan></text>
    <text
       xml:space="preserve"
       x="179"
       y="249"
       id="text3154"><tspan
         id="tspan3156">-Nord-Est</tspan></text>
    <text
       id="text3158"
       y="275"
       x="175"
       xml:space="preserve"
       style="font-size:8px"><tspan
         id="tspan3160">-N-O</tspan></text>
    <text
       xml:space="preserve"
       x="181"
       y="291"
       id="text3164"
       style="font-size:8px"><tspan
         id="tspan3166">-S-O</tspan></text>
    <text
       id="text3168"
       y="317"
       x="207"
       xml:space="preserve"><tspan
         id="tspan3170">-Est</tspan><tspan
         id="tspan3172" /></text>
    <text
       id="text3174"
       y="289"
       x="205"
       xml:space="preserve"
       style="font-size:8px"><tspan
         id="tspan3176">-St-Nic.</tspan></text>
    <text
       id="text3037"
       y="159"
       x="275"
       xml:space="preserve"><tspan
         id="tspan3039">-Est</tspan></text>
    <text
       xml:space="preserve"
       x="221"
       y="159"
       id="text3041"><tspan
         id="tspan3043">-Ouest</tspan></text>
    <text
       id="text3047"
       y="419"
       x="169"
       xml:space="preserve"><tspan
         id="tspan3049">-Ouest</tspan></text>
    <text
       xml:space="preserve"
       x="209"
       y="427"
       id="text3051"><tspan
         id="tspan3053">-Est</tspan></text>
    <text
       id="text3055"
       y="427"
       x="263"
       xml:space="preserve"><tspan
         id="tspan3057">Bierné</tspan></text>
    <text
       xml:space="preserve"
       x="279"
       y="371"
       id="text3061"><tspan
         id="tspan3063">Grez-en-Bouère</tspan></text>
    <text
       id="text3065"
       y="343"
       x="105"
       xml:space="preserve"><tspan
         id="tspan3067">Cossé-le-Vivien</tspan></text>
    <path
       d="m 46.40625,358.15625 0,1.03125 0.8125,0 0,-1.03125 -0.8125,0 z m 20.96875,0 0,1.03125 0.8125,0 0,-1.03125 -0.8125,0 z m -30.15625,0.15625 c -0.717776,10e-6 -1.277345,0.16602 -1.6875,0.5 -0.407227,0.33399 -0.593751,0.79493 -0.59375,1.375 -10e-7,0.50098 0.141601,0.90625 0.4375,1.1875 0.295897,0.28125 0.775389,0.49317 1.4375,0.625 l 0.53125,0.0937 c 0.451168,0.0908 0.772457,0.22461 0.96875,0.40625 0.199215,0.18164 0.312496,0.42774 0.3125,0.75 -4e-6,0.36914 -0.162114,0.64453 -0.4375,0.84375 -0.275394,0.19922 -0.649417,0.3125 -1.15625,0.3125 -0.333987,0 -0.685549,-0.0537 -1.03125,-0.15625 -0.345704,-0.10254 -0.702149,-0.2666 -1.0625,-0.46875 l 0,0.9375 c 0.374999,0.1377 0.745116,0.24219 1.09375,0.3125 0.35156,0.0703 0.689451,0.0937 1,0.0937 0.823239,0 1.450191,-0.17187 1.875,-0.5 0.427729,-0.32812 0.624995,-0.80176 0.625,-1.4375 -5e-6,-0.5332 -0.152349,-0.96484 -0.46875,-1.28125 -0.313481,-0.31933 -0.806645,-0.53027 -1.46875,-0.65625 l -0.53125,-0.125 c -0.48633,-0.0908 -0.824221,-0.19726 -1,-0.34375 -0.172853,-0.14941 -0.250001,-0.36621 -0.25,-0.65625 -10e-7,-0.3457 0.145506,-0.62499 0.40625,-0.8125 0.26367,-0.18749 0.610349,-0.28124 1.09375,-0.28125 0.278317,10e-6 0.576168,0.0459 0.875,0.125 0.298824,0.0791 0.631831,0.21387 0.96875,0.375 l 0,-0.875 c -0.333989,-0.11132 -0.680668,-0.19433 -1,-0.25 -0.319339,-0.0557 -0.629886,-0.0937 -0.9375,-0.0937 z m 25.71875,0.125 -2.5,6.5625 0.9375,0 0.59375,-1.6875 2.96875,0 0.59375,1.6875 0.90625,0 -2.5,-6.5625 -1,0 z m -8.34375,0.25 0,1.375 -0.59375,0 0,0.65625 0.59375,0 0,2.65625 c -10e-7,0.61524 0.137694,1.04688 0.375,1.28125 C 55.206053,364.8877 55.625975,365 56.25,365 l 0.84375,0 0,-0.6875 -0.84375,0 c -0.336916,0 -0.544924,-0.042 -0.65625,-0.15625 -0.1084,-0.11426 -0.187502,-0.37988 -0.1875,-0.78125 l 0,-2.65625 1.6875,0 0,-0.65625 -1.6875,0 0,-1.375 -0.8125,0 z m 8.84375,0.625 1.21875,3.28125 -2.40625,0 1.1875,-3.28125 z m -20.8125,0.65625 c -0.263674,10e-6 -0.534182,0.0352 -0.8125,0.0937 -0.278322,0.0557 -0.579103,0.13575 -0.875,0.25 l 0,0.75 c 0.246093,-0.13476 0.514647,-0.24511 0.78125,-0.3125 0.2666,-0.0674 0.531248,-0.0937 0.8125,-0.0937 0.44238,0 0.788083,0.0762 1.03125,0.28125 0.24609,0.20215 0.374996,0.50293 0.375,0.875 l 0,0.0937 -1.125,0 c -0.735354,0 -1.315431,0.125 -1.6875,0.40625 -0.369141,0.28125 -0.531251,0.69629 -0.53125,1.25 -10e-7,0.47461 0.141601,0.87207 0.4375,1.15625 0.298827,0.28125 0.683592,0.40625 1.1875,0.40625 0.398435,0 0.755856,-0.0781 1.03125,-0.21875 0.275387,-0.14355 0.502926,-0.35742 0.6875,-0.65625 l 0,0.75 0.8125,0 0,-2.8125 c -5e-6,-0.75 -0.179692,-1.31836 -0.53125,-1.6875 -0.351566,-0.36914 -0.881839,-0.53124 -1.59375,-0.53125 z m 8.65625,0 c -0.342776,10e-6 -0.642581,0.0723 -0.90625,0.21875 -0.260744,0.14649 -0.494142,0.36036 -0.6875,0.65625 l 0,-0.78125 -0.8125,0 0,4.9375 0.8125,0 0,-2.78125 c -2e-6,-0.48047 0.123045,-0.84668 0.375,-1.125 0.251951,-0.27832 0.594724,-0.4375 1.03125,-0.4375 0.363278,0 0.630856,0.11231 0.8125,0.34375 0.181637,0.23145 0.281246,0.59668 0.28125,1.0625 l 0,2.9375 0.8125,0 0,-2.96875 c -5e-6,-0.67968 -0.147466,-1.18261 -0.4375,-1.53125 -0.290043,-0.35156 -0.715824,-0.53124 -1.28125,-0.53125 z m 20.25,0 c -0.603518,10e-6 -1.099611,0.22754 -1.46875,0.6875 -0.369141,0.45996 -0.5625,1.05078 -0.5625,1.8125 0,0.75879 0.193359,1.38379 0.5625,1.84375 0.369139,0.45996 0.865232,0.6875 1.46875,0.6875 0.363278,0 0.676755,-0.0752 0.9375,-0.21875 0.260738,-0.14355 0.458004,-0.36621 0.625,-0.65625 l 0,0.40625 c -4e-6,0.55957 -0.142582,0.97461 -0.40625,1.25 -0.263675,0.27832 -0.65723,0.4375 -1.1875,0.4375 -0.240237,0 -0.456057,-0.0322 -0.6875,-0.0937 -0.231447,-0.0615 -0.481447,-0.18359 -0.71875,-0.3125 l 0,0.8125 c 0.237303,0.0879 0.498045,0.14648 0.75,0.1875 0.251951,0.0439 0.497068,0.0625 0.78125,0.0625 0.767575,0 1.346676,-0.21485 1.71875,-0.625 0.372066,-0.40723 0.562495,-1.03711 0.5625,-1.875 l 0,-4.3125 -0.8125,0 0,0.75 c -0.166996,-0.29003 -0.364262,-0.48144 -0.625,-0.625 -0.260745,-0.14355 -0.574222,-0.21874 -0.9375,-0.21875 z m 6.40625,0 c -0.342776,10e-6 -0.642581,0.0723 -0.90625,0.21875 -0.260744,0.14649 -0.494142,0.36036 -0.6875,0.65625 l 0,-0.78125 -0.8125,0 0,4.9375 0.8125,0 0,-2.78125 c -2e-6,-0.48047 0.123045,-0.84668 0.375,-1.125 0.251951,-0.27832 0.594724,-0.4375 1.03125,-0.4375 0.363278,0 0.662106,0.11231 0.84375,0.34375 0.181637,0.23145 0.249996,0.59668 0.25,1.0625 l 0,2.9375 0.8125,0 0,-2.96875 c -5e-6,-0.67968 -0.147466,-1.18261 -0.4375,-1.53125 -0.290043,-0.35156 -0.715824,-0.53124 -1.28125,-0.53125 z m 5.0625,0 c -0.263674,10e-6 -0.534182,0.0352 -0.8125,0.0937 -0.278322,0.0557 -0.547853,0.13575 -0.84375,0.25 l 0,0.75 c 0.246093,-0.13476 0.483397,-0.24511 0.75,-0.3125 0.2666,-0.0674 0.562498,-0.0937 0.84375,-0.0937 0.44238,0 0.788083,0.0762 1.03125,0.28125 0.24609,0.20215 0.343746,0.50293 0.34375,0.875 l 0,0.0937 -1.125,0 c -0.735354,0 -1.284181,0.125 -1.65625,0.40625 -0.369141,0.28125 -0.562501,0.69629 -0.5625,1.25 -10e-7,0.47461 0.172851,0.87207 0.46875,1.15625 0.298827,0.28125 0.683592,0.40625 1.1875,0.40625 0.398435,0 0.724606,-0.0781 1,-0.21875 0.275387,-0.14355 0.502926,-0.35742 0.6875,-0.65625 l 0,0.75 0.8125,0 0,-2.8125 c -5e-6,-0.75 -0.179692,-1.31836 -0.53125,-1.6875 -0.351566,-0.36909 -0.881839,-0.53119 -1.59375,-0.5312 z m 6.1875,0 c -0.342776,10e-6 -0.642581,0.0723 -0.90625,0.21875 -0.260744,0.14649 -0.494142,0.36036 -0.6875,0.65625 l 0,-0.78125 -0.8125,0 0,4.9375 0.8125,0 0,-2.78125 c -2e-6,-0.48047 0.123045,-0.84668 0.375,-1.125 0.251951,-0.27832 0.594724,-0.4375 1.03125,-0.4375 0.363278,0 0.630856,0.11231 0.8125,0.34375 0.181637,0.23145 0.281246,0.59668 0.28125,1.0625 l 0,2.9375 0.8125,0 0,-2.96875 c -5e-6,-0.67968 -0.147466,-1.18261 -0.4375,-1.53125 -0.290043,-0.35156 -0.715824,-0.53124 -1.28125,-0.53125 z m -42.78125,0.0937 0,4.9375 0.8125,0 0,-4.9375 -0.8125,0 z m 20.96875,0 0,4.9375 0.8125,0 0,-4.9375 -0.8125,0 z m 4.34375,0.5625 c 0.43652,0 0.759762,0.17774 1,0.5 0.24316,0.32227 0.374996,0.75782 0.375,1.34375 -4e-6,0.58301 -0.13184,1.05274 -0.375,1.375 -0.240238,0.32227 -0.56348,0.46875 -1,0.46875 -0.433596,0 -0.756838,-0.14648 -1,-0.46875 -0.240236,-0.32226 -0.375001,-0.79199 -0.375,-1.375 -10e-7,-0.58593 0.134764,-1.02148 0.375,-1.34375 0.243162,-0.32226 0.566404,-0.5 1,-0.5 z m -13.96875,1.5625 0,0.71875 2.375,0 0,-0.71875 -2.375,0 z m -14.625,0.34375 0.8125,0 0,0.1875 c -4e-6,0.52735 -0.133793,0.93067 -0.40625,1.25 -0.269534,0.31641 -0.645511,0.46875 -1.09375,0.46875 -0.325197,0 -0.559572,-0.083 -0.75,-0.25 -0.187501,-0.16992 -0.281251,-0.40039 -0.28125,-0.6875 -10e-7,-0.36035 0.123045,-0.60058 0.375,-0.75 0.251951,-0.14941 0.690427,-0.21875 1.34375,-0.21875 z m 40.40625,0 0.78125,0 0,0.1875 c -4e-6,0.52735 -0.133793,0.93067 -0.40625,1.25 -0.269534,0.31641 -0.614261,0.46875 -1.0625,0.46875 -0.325197,0 -0.590822,-0.083 -0.78125,-0.25 -0.187501,-0.16992 -0.281251,-0.40039 -0.28125,-0.6875 -10e-7,-0.36035 0.123045,-0.60058 0.375,-0.75 0.251951,-0.14941 0.721677,-0.21875 1.375,-0.21875 z m -6.03125,3.6563 0,0.875 0.875,0 0,-0.875 -0.875,0 z m 1.6875,0 0,0.875 0.90625,0 0,-0.875 -0.90625,0 z m -13.71875,0.25 0,6.5625 0.875,0 0,-2.78125 0.96875,0 c 0.351559,0 0.641598,0.0752 0.84375,0.21875 0.205074,0.14356 0.408199,0.43555 0.625,0.875 L 69.625,373 l 0.9375,0 -0.90625,-1.78125 c -0.181646,-0.36914 -0.349614,-0.66406 -0.53125,-0.875 -0.178715,-0.21093 -0.372074,-0.34179 -0.5625,-0.40625 0.366207,-0.10547 0.653316,-0.32129 0.84375,-0.59375 0.193354,-0.27246 0.281245,-0.58691 0.28125,-1 -5e-6,-0.63281 -0.193364,-1.12402 -0.5625,-1.4375 -0.369145,-0.31347 -0.906254,-0.46874 -1.65625,-0.46875 l -2,0 z m 0.875,0.71875 1.125,0 c 0.427731,10e-6 0.751949,0.11622 0.96875,0.3125 0.219722,0.19336 0.312496,0.49122 0.3125,0.875 -4e-6,0.38379 -0.09278,0.64454 -0.3125,0.84375 -0.216801,0.19629 -0.541019,0.3125 -0.96875,0.3125 l -1.125,0 0,-2.34375 z m -16.5625,0.8125 c -0.401002,0.0472 -0.722657,0.18604 -0.96875,0.375 -0.328126,0.25196 -0.500001,0.59961 -0.5,1.0625 -10e-7,0.38086 0.121093,0.68653 0.34375,0.90625 0.222655,0.2168 0.561522,0.36328 1.0625,0.46875 L 50,370.875 c 0.500974,0.1084 0.822263,0.19531 0.96875,0.3125 0.149411,0.11719 0.249997,0.31152 0.25,0.53125 -3e-6,0.23731 -0.107425,0.39941 -0.3125,0.53125 -0.205081,0.12891 -0.494143,0.1875 -0.875,0.1875 -0.284182,0 -0.584963,-0.0176 -0.875,-0.0937 -0.29004,-0.0791 -0.576173,-0.18848 -0.875,-0.34375 l 0,0.8125 c 0.316405,0.10254 0.622069,0.2002 0.90625,0.25 0.287108,0.0527 0.548826,0.0625 0.8125,0.0625 0.63281,0 1.139645,-0.13965 1.5,-0.40625 0.363277,-0.2666 0.531246,-0.60547 0.53125,-1.0625 -4e-6,-0.40137 -0.13184,-0.71484 -0.375,-0.9375 -0.240238,-0.22558 -0.644534,-0.4082 -1.21875,-0.53125 l -0.25,-0.0625 c -0.433596,-0.0967 -0.731447,-0.20703 -0.875,-0.3125 -0.143556,-0.1084 -0.218751,-0.25 -0.21875,-0.4375 -10e-7,-0.24609 0.08203,-0.43945 0.28125,-0.5625 0.202147,-0.12304 0.504881,-0.1875 0.90625,-0.1875 0.263669,0 0.535153,0.0352 0.78125,0.0937 0.24609,0.0586 0.490231,0.16407 0.71875,0.28125 l 0,-0.78125 c -0.22266,-0.0879 -0.486332,-0.14355 -0.75,-0.1875 -0.263675,-0.0439 -0.544925,-0.0625 -0.84375,-0.0625 -0.150879,0 -0.272583,-0.0158 -0.40625,0 z m 11.6875,0 c -0.389651,10e-6 -0.696292,0.0723 -0.96875,0.21875 -0.272463,0.14356 -0.51758,0.35743 -0.6875,0.65625 l 0,-0.78125 -0.8125,0 0,4.9375 0.8125,0 0,-2.59375 c -2e-6,-0.55664 0.131834,-0.98535 0.375,-1.28125 0.246092,-0.29882 0.605466,-0.4375 1.0625,-0.4375 0.128903,0 0.238278,0.005 0.34375,0.0312 0.108395,0.0234 0.221676,0.0723 0.3125,0.125 L 61.875,368 c -0.08203,-0.0146 -0.151371,-0.0254 -0.21875,-0.0312 -0.06739,-0.009 -0.131839,1e-5 -0.1875,0 z m 11.71875,0 c -0.706057,10e-6 -1.254884,0.23047 -1.65625,0.6875 -0.398438,0.45704 -0.59375,1.06641 -0.59375,1.875 0,0.80567 0.195312,1.44629 0.59375,1.90625 0.401366,0.45703 0.950193,0.6875 1.65625,0.6875 0.703122,0 1.254879,-0.23047 1.65625,-0.6875 0.401362,-0.45996 0.593745,-1.10058 0.59375,-1.90625 -5e-6,-0.80859 -0.192388,-1.41796 -0.59375,-1.875 -0.401371,-0.45703 -0.953128,-0.68749 -1.65625,-0.6875 z m 5.65625,0 c -0.738283,10e-6 -1.344728,0.2129 -1.78125,0.6875 -0.433594,0.47168 -0.625,1.13184 -0.625,1.9375 0,0.7793 0.230468,1.38672 0.6875,1.84375 0.459959,0.45703 1.058591,0.6875 1.84375,0.6875 0.313473,0 0.632809,-0.0293 0.9375,-0.0937 0.304683,-0.0645 0.616206,-0.1582 0.90625,-0.28125 l 0,-0.75 c -0.287114,0.15234 -0.582036,0.23633 -0.875,0.3125 -0.290043,0.0762 -0.595707,0.125 -0.90625,0.125 -0.536135,0 -0.948244,-0.14746 -1.25,-0.4375 -0.29883,-0.29297 -0.464845,-0.72461 -0.5,-1.28125 l 3.71875,0 0,-0.375 c -5e-6,-0.73242 -0.207036,-1.32519 -0.59375,-1.75 -0.383793,-0.42773 -0.900394,-0.62499 -1.5625,-0.625 z m -25.59375,0.0937 0,3 c -10e-7,0.67676 0.14453,1.17969 0.4375,1.53125 0.292967,0.35156 0.715818,0.53125 1.28125,0.53125 0.342771,0 0.648434,-0.0752 0.90625,-0.21875 0.260739,-0.14648 0.491207,-0.35742 0.6875,-0.65625 l 0,0.75 0.8125,0 0,-4.9375 -0.8125,0 0,2.8125 c -4e-6,0.48047 -0.120121,0.84668 -0.375,1.125 -0.251957,0.27832 -0.59473,0.4375 -1.03125,0.4375 -0.363284,0 -0.662111,-0.14355 -0.84375,-0.375 -0.181642,-0.23437 -0.250002,-0.56543 -0.25,-1.03125 l 0,-2.96875 -0.8125,0 z m 19.9375,0.59375 c 0.430661,0 0.779293,0.15723 1.03125,0.5 0.251949,0.33985 0.374996,0.792 0.375,1.375 -4e-6,0.58594 -0.123051,1.06641 -0.375,1.40625 -0.251957,0.33984 -0.600589,0.5 -1.03125,0.5 -0.436526,0 -0.779299,-0.16309 -1.03125,-0.5 -0.249025,-0.33984 -0.375001,-0.81738 -0.375,-1.40625 -10e-7,-0.58886 0.123045,-1.03808 0.375,-1.375 0.251951,-0.33984 0.597654,-0.5 1.03125,-0.5 z m 5.34375,0 c 0.101624,-0.0159 0.199706,0 0.3125,0 0.398434,0 0.728512,0.11133 0.96875,0.375 0.24316,0.26368 0.369136,0.62012 0.375,1.0625 l -2.90625,0 c 0.04101,-0.46289 0.199217,-0.80761 0.46875,-1.0625 0.204344,-0.19116 0.476379,-0.32721 0.78125,-0.375 z m -33.5625,1.53125 0,0.71875 2.375,0 0,-0.71875 -2.375,0 z m 16.78125,0 0,0.71875 2.375,0 0,-0.71875 -2.375,0 z"
       id="text3069"
       inkscape:connector-curvature="0" />
    <text
       xml:space="preserve"
       x="109"
       y="401"
       id="text3080"><tspan
         id="tspan3082">Craon</tspan></text>
    <text
       xml:space="preserve"
       x="165"
       y="303"
       id="text3084"><tspan
         id="tspan3086">Saint-Berthevin</tspan></text>
    <text
       id="text3088"
       y="261"
       x="115"
       xml:space="preserve"><tspan
         id="tspan3090">Loiron</tspan></text>
    <text
       xml:space="preserve"
       x="143"
       y="191"
       id="text3092"><tspan
         id="tspan3094">Chailland</tspan></text>
    <text
       id="text3096"
       y="269"
       x="229"
       xml:space="preserve"><tspan
         id="tspan3098">Argentré</tspan></text>
    <text
       xml:space="preserve"
       x="269"
       y="239"
       id="text3100"><tspan
         id="tspan3102">Montsûrs</tspan></text>
    <text
       id="text3104"
       y="331"
       x="281"
       xml:space="preserve"><tspan
         id="tspan3106">Meslay-du-Maine</tspan></text>
    <text
       xml:space="preserve"
       x="335"
       y="283"
       id="text3108"><tspan
         id="tspan3110">Sainte-Suzanne</tspan></text>
    <text
       id="text3112"
       y="231"
       x="343"
       xml:space="preserve"><tspan
         id="tspan3114">Évron</tspan></text>
    <text
       xml:space="preserve"
       x="141"
       y="131"
       id="text3116"><tspan
         id="tspan3118">Ernée</tspan></text>
    <text
       id="text3120"
       y="61"
       x="117"
       xml:space="preserve"><tspan
         id="tspan3122">Landivy</tspan></text>
    <text
       xml:space="preserve"
       x="185"
       y="95"
       id="text3124"><tspan
         id="tspan3126">Gorron</tspan></text>
    <text
       id="text3128"
       y="61"
       x="365"
       xml:space="preserve"><tspan
         id="tspan3130">Couptrain</tspan></text>
    <text
       xml:space="preserve"
       x="421"
       y="85"
       id="text3132"><tspan
         id="tspan3134">Pré-en-Pail</tspan></text>
    <text
       id="text3136"
       y="179"
       x="351"
       xml:space="preserve"><tspan
         id="tspan3138">Bais</tspan></text>
    <text
       xml:space="preserve"
       x="319"
       y="111"
       id="text3140"><tspan
         id="tspan3142">Le Horps</tspan></text>
    <text
       xml:space="preserve"
       x="305"
       y="61"
       id="text3147">Lassay-les-</text>
    <text
       xml:space="preserve"
       x="305"
       y="69"
       id="text3153">Châteaux</text>
    <path
       d="M 244.5 69.8125 L 245.9375 71.4375 L 246.625 71.4375 L 245.375 69.8125 L 244.5 69.8125 z M 232.0625 70.15625 L 232.0625 77 L 232.875 77 L 232.875 76.25 C 233.04492 76.542969 233.24219 76.762696 233.5 76.90625 C 233.76074 77.046875 234.07715 77.125 234.4375 77.125 C 235.03515 77.125 235.53418 76.880859 235.90625 76.40625 C 236.28124 75.931642 236.46874 75.304689 236.46875 74.53125 C 236.46874 73.757816 236.28124 73.130863 235.90625 72.65625 C 235.53418 72.181645 235.03515 71.968755 234.4375 71.96875 C 234.07715 71.968755 233.76074 72.04395 233.5 72.1875 C 233.24219 72.32813 233.04492 72.519536 232.875 72.8125 L 232.875 70.15625 L 232.0625 70.15625 z M 241.5 70.15625 L 241.5 71.1875 L 242.3125 71.1875 L 242.3125 70.15625 L 241.5 70.15625 z M 218.875 70.4375 L 216.375 77 L 217.3125 77 L 217.90625 75.3125 L 220.875 75.3125 L 221.46875 77 L 222.40625 77 L 219.90625 70.4375 L 218.875 70.4375 z M 219.375 71.3125 L 220.59375 74.59375 L 218.1875 74.59375 L 219.375 71.3125 z M 225.6875 71.96875 C 225.333 71.968755 225.00781 72.04395 224.75 72.1875 C 224.49219 72.331059 224.27832 72.541997 224.09375 72.84375 L 224.09375 72.0625 L 223.28125 72.0625 L 223.28125 77 L 224.09375 77 L 224.09375 74.21875 C 224.09375 73.741214 224.22558 73.372074 224.46875 73.09375 C 224.71191 72.812504 225.02441 72.656254 225.4375 72.65625 C 225.78613 72.656254 226.05175 72.771489 226.21875 73 C 226.38574 73.22559 226.46875 73.587894 226.46875 74.0625 L 226.46875 77 L 227.28125 77 L 227.28125 74.21875 C 227.28125 73.738285 227.41308 73.372074 227.65625 73.09375 C 227.89941 72.815434 228.20605 72.656254 228.625 72.65625 C 228.96777 72.656254 229.23925 72.771489 229.40625 73 C 229.57324 73.228519 229.65624 73.590824 229.65625 74.0625 L 229.65625 77 L 230.46875 77 L 230.46875 74.03125 C 230.46874 73.369144 230.34081 72.857426 230.0625 72.5 C 229.78417 72.139653 229.38769 71.968755 228.875 71.96875 C 228.49413 71.968755 228.15624 72.045903 227.875 72.21875 C 227.59374 72.391606 227.35839 72.667973 227.15625 73.03125 C 227.03613 72.685551 226.8457 72.400395 226.59375 72.21875 C 226.34472 72.037114 226.04492 71.968755 225.6875 71.96875 z M 240.25 71.96875 C 239.86035 71.968755 239.52246 72.041021 239.25 72.1875 C 238.97754 72.331059 238.76367 72.544926 238.59375 72.84375 L 238.59375 72.0625 L 237.75 72.0625 L 237.75 77 L 238.59375 77 L 238.59375 74.40625 C 238.59375 73.849613 238.69433 73.420902 238.9375 73.125 C 239.18359 72.826176 239.54297 72.687504 240 72.6875 C 240.1289 72.687504 240.23828 72.692387 240.34375 72.71875 C 240.45214 72.742192 240.56543 72.79102 240.65625 72.84375 L 240.65625 72 C 240.57422 71.985357 240.47363 71.974614 240.40625 71.96875 C 240.33886 71.959966 240.30566 71.968755 240.25 71.96875 z M 246.0625 71.96875 C 245.32422 71.968755 244.74902 72.181645 244.3125 72.65625 C 243.87891 73.127934 243.65625 73.788089 243.65625 74.59375 C 243.65625 75.373049 243.88672 75.98047 244.34375 76.4375 C 244.80371 76.894531 245.40234 77.125 246.1875 77.125 C 246.50097 77.125 246.82031 77.095703 247.125 77.03125 C 247.42968 76.966797 247.74121 76.873047 248.03125 76.75 L 248.03125 76 C 247.74414 76.152345 247.44921 76.236329 247.15625 76.3125 C 246.86621 76.388672 246.56054 76.437501 246.25 76.4375 C 245.71386 76.437501 245.30176 76.29004 245 76 C 244.70117 75.707033 244.53515 75.275392 244.5 74.71875 L 248.21875 74.71875 L 248.21875 74.34375 C 248.21874 73.611332 248.01171 73.018559 247.625 72.59375 C 247.24121 72.16602 246.72461 71.968755 246.0625 71.96875 z M 251.96875 71.96875 C 251.5791 71.968755 251.27246 72.041021 251 72.1875 C 250.72754 72.331059 250.48242 72.544926 250.3125 72.84375 L 250.3125 72.0625 L 249.5 72.0625 L 249.5 77 L 250.3125 77 L 250.3125 74.40625 C 250.3125 73.849613 250.44433 73.420902 250.6875 73.125 C 250.93359 72.826176 251.29297 72.687504 251.75 72.6875 C 251.8789 72.687504 251.98828 72.692387 252.09375 72.71875 C 252.20214 72.742192 252.28418 72.79102 252.375 72.84375 L 252.375 72 C 252.29297 71.985357 252.22363 71.974614 252.15625 71.96875 C 252.08886 71.959966 252.02441 71.968755 251.96875 71.96875 z M 255.125 71.96875 C 254.38672 71.968755 253.78027 72.181645 253.34375 72.65625 C 252.91016 73.127934 252.6875 73.788089 252.6875 74.59375 C 252.6875 75.373049 252.91797 75.98047 253.375 76.4375 C 253.83496 76.894531 254.46484 77.125 255.25 77.125 C 255.56347 77.125 255.88281 77.095703 256.1875 77.03125 C 256.49218 76.966797 256.77246 76.873047 257.0625 76.75 L 257.0625 76 C 256.77539 76.152345 256.51171 76.236329 256.21875 76.3125 C 255.92871 76.388672 255.62304 76.437501 255.3125 76.4375 C 254.77636 76.437501 254.36426 76.29004 254.0625 76 C 253.76367 75.707033 253.5664 75.275392 253.53125 74.71875 L 257.25 74.71875 L 257.25 74.34375 C 257.24999 73.611332 257.07421 73.018559 256.6875 72.59375 C 256.30371 72.16602 255.78711 71.968755 255.125 71.96875 z M 259.71875 71.96875 C 259.31775 72.015993 258.99609 72.154789 258.75 72.34375 C 258.42187 72.595708 258.28125 72.943363 258.28125 73.40625 C 258.28125 73.787113 258.37109 74.092776 258.59375 74.3125 C 258.81641 74.529299 259.18652 74.675784 259.6875 74.78125 L 259.96875 74.875 C 260.46972 74.9834 260.79101 75.070314 260.9375 75.1875 C 261.08691 75.304689 261.15625 75.499025 261.15625 75.71875 C 261.15625 75.956056 261.04882 76.118165 260.84375 76.25 C 260.63867 76.378907 260.34961 76.437501 259.96875 76.4375 C 259.68457 76.437501 259.41504 76.419922 259.125 76.34375 C 258.83496 76.264649 258.51758 76.155274 258.21875 76 L 258.21875 76.8125 C 258.53516 76.915039 258.84082 77.012695 259.125 77.0625 C 259.41211 77.115234 259.70508 77.125 259.96875 77.125 C 260.60156 77.125 261.07715 76.985352 261.4375 76.71875 C 261.80078 76.452149 262 76.113282 262 75.65625 C 262 75.254885 261.86816 74.941408 261.625 74.71875 C 261.38476 74.493167 260.98047 74.31055 260.40625 74.1875 L 260.125 74.125 C 259.6914 74.028323 259.39355 73.917972 259.25 73.8125 C 259.10644 73.704105 259.0625 73.562503 259.0625 73.375 C 259.0625 73.12891 259.14453 72.935551 259.34375 72.8125 C 259.5459 72.689457 259.84863 72.625004 260.25 72.625 C 260.51367 72.625004 260.78515 72.660161 261.03125 72.71875 C 261.27734 72.777348 261.49023 72.882817 261.71875 73 L 261.71875 72.21875 C 261.49609 72.130864 261.26367 72.0752 261 72.03125 C 260.73633 71.98731 260.45508 71.968755 260.15625 71.96875 C 260.00537 71.968751 259.85242 71.953002 259.71875 71.96875 z M 241.5 72.0625 L 241.5 77 L 242.3125 77 L 242.3125 72.0625 L 241.5 72.0625 z M 234.25 72.625 C 234.67773 72.625004 235.00683 72.81641 235.25 73.15625 C 235.49609 73.493168 235.625 73.936526 235.625 74.53125 C 235.625 75.125978 235.49609 75.597658 235.25 75.9375 C 235.00683 76.274415 234.67773 76.437501 234.25 76.4375 C 233.82226 76.437501 233.46484 76.274415 233.21875 75.9375 C 232.97558 75.597658 232.875 75.125978 232.875 74.53125 C 232.875 73.936526 232.97558 73.493168 233.21875 73.15625 C 233.46484 72.81641 233.82226 72.625004 234.25 72.625 z M 245.75 72.65625 C 245.85162 72.640319 245.94971 72.656251 246.0625 72.65625 C 246.46093 72.656254 246.79101 72.767582 247.03125 73.03125 C 247.27441 73.294926 247.40039 73.651371 247.40625 74.09375 L 244.53125 74.09375 C 244.57226 73.630863 244.73047 73.286137 245 73.03125 C 245.20434 72.840091 245.44513 72.704042 245.75 72.65625 z M 254.8125 72.65625 C 254.91412 72.640319 255.01221 72.656251 255.125 72.65625 C 255.52343 72.656254 255.85351 72.767582 256.09375 73.03125 C 256.33691 73.294926 256.46289 73.651371 256.46875 74.09375 L 253.5625 74.09375 C 253.60351 73.630863 253.76172 73.286137 254.03125 73.03125 C 254.23559 72.840091 254.50763 72.704042 254.8125 72.65625 z M 262.875 74.1875 L 262.875 74.90625 L 265.25 74.90625 L 265.25 74.1875 L 262.875 74.1875 z M 252.28125 77.8125 L 251.0625 79.46875 L 251.75 79.46875 L 253.15625 77.8125 L 252.28125 77.8125 z M 218.25 78.15625 L 218.25 85 L 219.0625 85 L 219.0625 78.15625 L 218.25 78.15625 z M 244.6875 78.15625 L 244.6875 85 L 245.5 85 L 245.5 78.15625 L 244.6875 78.15625 z M 247.1875 78.15625 L 247.1875 85 L 247.96875 85 L 247.96875 78.15625 L 247.1875 78.15625 z M 232.9375 78.4375 L 235.4375 85 L 236.4375 85 L 238.9375 78.4375 L 238.03125 78.4375 L 235.9375 83.96875 L 233.84375 78.4375 L 232.9375 78.4375 z M 222.8125 79.96875 C 222.07422 79.968755 221.49902 80.181645 221.0625 80.65625 C 220.62891 81.127934 220.40625 81.788089 220.40625 82.59375 C 220.40625 83.373049 220.63672 83.98047 221.09375 84.4375 C 221.55371 84.894531 222.18359 85.125 222.96875 85.125 C 223.28222 85.125 223.57031 85.095703 223.875 85.03125 C 224.17968 84.966797 224.49121 84.873047 224.78125 84.75 L 224.78125 84 C 224.49414 84.152345 224.19921 84.236329 223.90625 84.3125 C 223.61621 84.388672 223.31054 84.437501 223 84.4375 C 222.46386 84.437501 222.05176 84.29004 221.75 84 C 221.45117 83.707033 221.28515 83.275392 221.25 82.71875 L 224.96875 82.71875 L 224.96875 82.34375 C 224.96874 81.611332 224.76171 81.018559 224.375 80.59375 C 223.99121 80.16602 223.47461 79.968755 222.8125 79.96875 z M 227.4375 79.96875 C 227.0365 80.015993 226.71484 80.154789 226.46875 80.34375 C 226.14062 80.595708 225.96875 80.943363 225.96875 81.40625 C 225.96875 81.787113 226.08984 82.092776 226.3125 82.3125 C 226.53516 82.529299 226.87402 82.675784 227.375 82.78125 L 227.65625 82.875 C 228.15722 82.9834 228.47851 83.070314 228.625 83.1875 C 228.77441 83.304689 228.875 83.499025 228.875 83.71875 C 228.875 83.956056 228.76757 84.118165 228.5625 84.25 C 228.35742 84.378907 228.06836 84.437501 227.6875 84.4375 C 227.40332 84.437501 227.10254 84.419922 226.8125 84.34375 C 226.52246 84.264649 226.23633 84.155274 225.9375 84 L 225.9375 84.8125 C 226.25391 84.915039 226.55957 85.012695 226.84375 85.0625 C 227.13086 85.115234 227.39258 85.125 227.65625 85.125 C 228.28906 85.125 228.7959 84.985352 229.15625 84.71875 C 229.51953 84.452149 229.6875 84.113282 229.6875 83.65625 C 229.6875 83.254885 229.55566 82.941408 229.3125 82.71875 C 229.07226 82.493167 228.66797 82.31055 228.09375 82.1875 L 227.84375 82.125 C 227.41015 82.028323 227.1123 81.917972 226.96875 81.8125 C 226.82519 81.704105 226.75 81.562503 226.75 81.375 C 226.75 81.12891 226.86328 80.935551 227.0625 80.8125 C 227.26465 80.689457 227.53613 80.625004 227.9375 80.625 C 228.20117 80.625004 228.47265 80.660161 228.71875 80.71875 C 228.96484 80.777348 229.20898 80.882817 229.4375 81 L 229.4375 80.21875 C 229.21484 80.130864 228.95117 80.0752 228.6875 80.03125 C 228.42383 79.98731 228.14258 79.968755 227.84375 79.96875 C 227.69287 79.968751 227.57117 79.953002 227.4375 79.96875 z M 240.875 79.96875 C 240.61133 79.968755 240.34082 80.003911 240.0625 80.0625 C 239.78418 80.118169 239.51465 80.198247 239.21875 80.3125 L 239.21875 81.0625 C 239.46484 80.927738 239.70215 80.817387 239.96875 80.75 C 240.23535 80.682622 240.53125 80.656254 240.8125 80.65625 C 241.25488 80.656254 241.60058 80.732426 241.84375 80.9375 C 242.08984 81.139652 242.1875 81.440433 242.1875 81.8125 L 242.1875 81.90625 L 241.0625 81.90625 C 240.32715 81.906253 239.77832 82.031253 239.40625 82.3125 C 239.03711 82.593752 238.84375 83.008791 238.84375 83.5625 C 238.84375 84.03711 238.98535 84.434571 239.28125 84.71875 C 239.58008 85 239.99609 85.125 240.5 85.125 C 240.89843 85.125 241.22461 85.046875 241.5 84.90625 C 241.77539 84.762696 242.00293 84.548829 242.1875 84.25 L 242.1875 85 L 243 85 L 243 82.1875 C 243 81.437504 242.82031 80.869145 242.46875 80.5 C 242.11718 80.130864 241.58691 79.968755 240.875 79.96875 z M 251.71875 79.96875 C 250.98047 79.968755 250.40527 80.181645 249.96875 80.65625 C 249.53516 81.127934 249.3125 81.788089 249.3125 82.59375 C 249.3125 83.373049 249.54297 83.98047 250 84.4375 C 250.45996 84.894531 251.08984 85.125 251.875 85.125 C 252.18847 85.125 252.50781 85.095703 252.8125 85.03125 C 253.11718 84.966797 253.39746 84.873047 253.6875 84.75 L 253.6875 84 C 253.40039 84.152345 253.10546 84.236329 252.8125 84.3125 C 252.52246 84.388672 252.21679 84.437501 251.90625 84.4375 C 251.37011 84.437501 250.95801 84.29004 250.65625 84 C 250.35742 83.707033 250.1914 83.275392 250.15625 82.71875 L 253.875 82.71875 L 253.875 82.34375 C 253.87499 81.611332 253.69921 81.018559 253.3125 80.59375 C 252.92871 80.16602 252.38086 79.968755 251.71875 79.96875 z M 257.28125 79.96875 C 256.54297 79.968755 255.93652 80.181645 255.5 80.65625 C 255.06641 81.127934 254.84375 81.788089 254.84375 82.59375 C 254.84375 83.373049 255.07422 83.98047 255.53125 84.4375 C 255.99121 84.894531 256.62109 85.125 257.40625 85.125 C 257.71972 85.125 258.03906 85.095703 258.34375 85.03125 C 258.64843 84.966797 258.92871 84.873047 259.21875 84.75 L 259.21875 84 C 258.93164 84.152345 258.63671 84.236329 258.34375 84.3125 C 258.05371 84.388672 257.77929 84.437501 257.46875 84.4375 C 256.93261 84.437501 256.48926 84.29004 256.1875 84 C 255.88867 83.707033 255.72265 83.275392 255.6875 82.71875 L 259.40625 82.71875 L 259.40625 82.34375 C 259.40624 81.611332 259.23046 81.018559 258.84375 80.59375 C 258.45996 80.16602 257.94336 79.968755 257.28125 79.96875 z M 261.875 79.96875 C 261.474 80.015993 261.15234 80.154789 260.90625 80.34375 C 260.57812 80.595708 260.40625 80.943363 260.40625 81.40625 C 260.40625 81.787113 260.52734 82.092776 260.75 82.3125 C 260.97266 82.529299 261.34277 82.675784 261.84375 82.78125 L 262.125 82.875 C 262.62597 82.9834 262.94726 83.070314 263.09375 83.1875 C 263.24316 83.304689 263.3125 83.499025 263.3125 83.71875 C 263.3125 83.956056 263.20507 84.118165 263 84.25 C 262.79492 84.378907 262.50586 84.437501 262.125 84.4375 C 261.84082 84.437501 261.57129 84.419922 261.28125 84.34375 C 260.99121 84.264649 260.67383 84.155274 260.375 84 L 260.375 84.8125 C 260.69141 84.915039 260.99707 85.012695 261.28125 85.0625 C 261.56836 85.115234 261.86133 85.125 262.125 85.125 C 262.75781 85.125 263.2334 84.985352 263.59375 84.71875 C 263.95703 84.452149 264.15625 84.113282 264.15625 83.65625 C 264.15625 83.254885 264.02441 82.941408 263.78125 82.71875 C 263.54101 82.493167 263.13672 82.31055 262.5625 82.1875 L 262.28125 82.125 C 261.84765 82.028323 261.5498 81.917972 261.40625 81.8125 C 261.26269 81.704105 261.1875 81.562503 261.1875 81.375 C 261.1875 81.12891 261.30078 80.935551 261.5 80.8125 C 261.70215 80.689457 262.00488 80.625004 262.40625 80.625 C 262.66992 80.625004 262.91015 80.660161 263.15625 80.71875 C 263.40234 80.777348 263.64648 80.882817 263.875 81 L 263.875 80.21875 C 263.65234 80.130864 263.41992 80.0752 263.15625 80.03125 C 262.89258 79.98731 262.61133 79.968755 262.3125 79.96875 C 262.16162 79.968751 262.00867 79.953002 261.875 79.96875 z M 222.5 80.65625 C 222.60162 80.640319 222.69971 80.656251 222.8125 80.65625 C 223.21093 80.656254 223.54101 80.767582 223.78125 81.03125 C 224.02441 81.294926 224.15039 81.651371 224.15625 82.09375 L 221.28125 82.09375 C 221.32226 81.630863 221.48047 81.286137 221.75 81.03125 C 221.95434 80.840091 222.19513 80.704042 222.5 80.65625 z M 251.40625 80.65625 C 251.50787 80.640319 251.63721 80.656251 251.75 80.65625 C 252.14843 80.656254 252.44726 80.767582 252.6875 81.03125 C 252.93066 81.294926 253.05664 81.651371 253.0625 82.09375 L 250.1875 82.09375 C 250.22851 81.630863 250.38672 81.286137 250.65625 81.03125 C 250.86059 80.840091 251.10138 80.704042 251.40625 80.65625 z M 256.96875 80.65625 C 257.07037 80.640319 257.16846 80.656251 257.28125 80.65625 C 257.67968 80.656254 258.00976 80.767582 258.25 81.03125 C 258.49316 81.294926 258.58789 81.651371 258.59375 82.09375 L 255.71875 82.09375 C 255.75976 81.630863 255.91797 81.286137 256.1875 81.03125 C 256.39184 80.840091 256.66388 80.704042 256.96875 80.65625 z M 230.5625 82.1875 L 230.5625 82.90625 L 232.9375 82.90625 L 232.9375 82.1875 L 230.5625 82.1875 z M 241.40625 82.53125 L 242.1875 82.53125 L 242.1875 82.71875 C 242.1875 83.246096 242.05371 83.649415 241.78125 83.96875 C 241.51172 84.285157 241.16699 84.437501 240.71875 84.4375 C 240.39355 84.437501 240.12793 84.354493 239.9375 84.1875 C 239.75 84.017579 239.65625 83.787111 239.65625 83.5 C 239.65625 83.13965 239.7793 82.899416 240.03125 82.75 C 240.2832 82.600588 240.75293 82.531252 241.40625 82.53125 z "
       id="text3155" />
    <path
       d="M 379.46875 126.15625 L 379.46875 127.1875 L 380.28125 127.1875 L 380.28125 126.15625 L 379.46875 126.15625 z M 381.96875 126.15625 L 381.96875 133 L 382.78125 133 L 382.78125 126.15625 L 381.96875 126.15625 z M 384.46875 126.15625 L 384.46875 133 L 385.28125 133 L 385.28125 126.15625 L 384.46875 126.15625 z M 392.5 126.15625 L 392.5 127.1875 L 393.28125 127.1875 L 393.28125 126.15625 L 392.5 126.15625 z M 372.75 126.4375 L 375.25 133 L 376.25 133 L 378.75 126.4375 L 377.84375 126.4375 L 375.75 131.96875 L 373.65625 126.4375 L 372.75 126.4375 z M 388.6875 127.96875 C 388.42383 127.96876 388.15332 128.00391 387.875 128.0625 C 387.59668 128.11817 387.32715 128.19825 387.03125 128.3125 L 387.03125 129.0625 C 387.27734 128.92774 387.51465 128.81739 387.78125 128.75 C 388.04785 128.68262 388.34375 128.65625 388.625 128.65625 C 389.06738 128.65625 389.38183 128.73243 389.625 128.9375 C 389.87109 129.13965 390 129.44043 390 129.8125 L 390 129.90625 L 388.875 129.90625 C 388.13965 129.90625 387.59082 130.03125 387.21875 130.3125 C 386.84961 130.59375 386.65625 131.00879 386.65625 131.5625 C 386.65625 132.03711 386.79785 132.43457 387.09375 132.71875 C 387.39258 133 387.80859 133.125 388.3125 133.125 C 388.71093 133.125 389.03711 133.04687 389.3125 132.90625 C 389.58789 132.7627 389.81543 132.54883 390 132.25 L 390 133 L 390.8125 133 L 390.8125 130.1875 C 390.8125 129.4375 390.63281 128.86914 390.28125 128.5 C 389.92968 128.13086 389.39941 127.96876 388.6875 127.96875 z M 397.34375 127.96875 C 397.00097 127.96876 396.70117 128.04102 396.4375 128.1875 C 396.17676 128.33399 395.94336 128.54786 395.75 128.84375 L 395.75 128.0625 L 394.9375 128.0625 L 394.9375 133 L 395.75 133 L 395.75 130.21875 C 395.75 129.73828 395.9043 129.37207 396.15625 129.09375 C 396.4082 128.81543 396.75097 128.65625 397.1875 128.65625 C 397.55078 128.65625 397.81836 128.76856 398 129 C 398.18164 129.23145 398.25 129.59668 398.25 130.0625 L 398.25 133 L 399.0625 133 L 399.0625 130.03125 C 399.0625 129.35157 398.91503 128.84864 398.625 128.5 C 398.33496 128.14844 397.90918 127.96876 397.34375 127.96875 z M 402.75 127.96875 C 402.01172 127.96876 401.43652 128.18165 401 128.65625 C 400.56641 129.12793 400.34375 129.78809 400.34375 130.59375 C 400.34375 131.37305 400.57422 131.98047 401.03125 132.4375 C 401.49121 132.89453 402.12109 133.125 402.90625 133.125 C 403.21972 133.125 403.50781 133.0957 403.8125 133.03125 C 404.11718 132.9668 404.42871 132.87305 404.71875 132.75 L 404.71875 132 C 404.43164 132.15234 404.13671 132.23633 403.84375 132.3125 C 403.55371 132.38867 403.24804 132.4375 402.9375 132.4375 C 402.40136 132.4375 401.98926 132.29004 401.6875 132 C 401.38867 131.70703 401.22265 131.27539 401.1875 130.71875 L 404.90625 130.71875 L 404.90625 130.34375 C 404.90624 129.61133 404.69921 129.01856 404.3125 128.59375 C 403.92871 128.16602 403.41211 127.96876 402.75 127.96875 z M 407.375 127.96875 C 406.974 128.01599 406.65234 128.15479 406.40625 128.34375 C 406.07812 128.59571 405.90625 128.94336 405.90625 129.40625 C 405.90625 129.78711 406.02734 130.09278 406.25 130.3125 C 406.47266 130.5293 406.81152 130.67578 407.3125 130.78125 L 407.59375 130.875 C 408.09472 130.9834 408.44726 131.07031 408.59375 131.1875 C 408.74316 131.30469 408.8125 131.49902 408.8125 131.71875 C 408.8125 131.95606 408.70507 132.11816 408.5 132.25 C 408.29492 132.37891 408.00586 132.4375 407.625 132.4375 C 407.34082 132.4375 407.04004 132.41992 406.75 132.34375 C 406.45996 132.26465 406.17383 132.15527 405.875 132 L 405.875 132.8125 C 406.19141 132.91504 406.49707 133.0127 406.78125 133.0625 C 407.06836 133.11523 407.33008 133.125 407.59375 133.125 C 408.22656 133.125 408.7334 132.98535 409.09375 132.71875 C 409.45703 132.45215 409.625 132.11328 409.625 131.65625 C 409.625 131.25488 409.52441 130.94141 409.28125 130.71875 C 409.04101 130.49317 408.63672 130.31055 408.0625 130.1875 L 407.78125 130.125 C 407.34765 130.02832 407.0498 129.91797 406.90625 129.8125 C 406.76269 129.7041 406.6875 129.5625 406.6875 129.375 C 406.6875 129.12891 406.80078 128.93555 407 128.8125 C 407.20215 128.68946 407.50488 128.625 407.90625 128.625 C 408.16992 128.625 408.41015 128.66016 408.65625 128.71875 C 408.90234 128.77735 409.14648 128.88282 409.375 129 L 409.375 128.21875 C 409.15234 128.13086 408.88867 128.0752 408.625 128.03125 C 408.36133 127.98731 408.08008 127.96876 407.78125 127.96875 C 407.63037 127.96875 407.50867 127.953 407.375 127.96875 z M 379.46875 128.0625 L 379.46875 133 L 380.28125 133 L 380.28125 128.0625 L 379.46875 128.0625 z M 392.5 128.0625 L 392.5 133 L 393.28125 133 L 393.28125 128.0625 L 392.5 128.0625 z M 402.4375 128.65625 C 402.53912 128.64032 402.63721 128.65625 402.75 128.65625 C 403.14843 128.65625 403.47851 128.76758 403.71875 129.03125 C 403.96191 129.29493 404.08789 129.65137 404.09375 130.09375 L 401.21875 130.09375 C 401.25976 129.63086 401.41797 129.28614 401.6875 129.03125 C 401.89184 128.84009 402.13263 128.70404 402.4375 128.65625 z M 410.53125 130.1875 L 410.53125 130.90625 L 412.875 130.90625 L 412.875 130.1875 L 410.53125 130.1875 z M 389.1875 130.53125 L 390 130.53125 L 390 130.71875 C 390 131.2461 389.86621 131.64942 389.59375 131.96875 C 389.32422 132.28516 388.97949 132.4375 388.53125 132.4375 C 388.20605 132.4375 387.94043 132.35449 387.75 132.1875 C 387.5625 132.01758 387.46875 131.78711 387.46875 131.5 C 387.46875 131.13965 387.5918 130.89942 387.84375 130.75 C 388.0957 130.60059 388.53418 130.53125 389.1875 130.53125 z M 376.90625 134.15625 L 376.90625 141 L 377.71875 141 L 377.71875 134.15625 L 376.90625 134.15625 z M 397.03125 134.15625 L 397.03125 141 L 397.84375 141 L 397.84375 138.21875 C 397.84375 137.73828 397.9668 137.37207 398.21875 137.09375 C 398.4707 136.81543 398.81347 136.65625 399.25 136.65625 C 399.61328 136.65625 399.88086 136.76856 400.0625 137 C 400.24414 137.23145 400.34375 137.59668 400.34375 138.0625 L 400.34375 141 L 401.125 141 L 401.125 138.03125 C 401.125 137.35157 401.00878 136.84864 400.71875 136.5 C 400.42871 136.14844 399.97168 135.96876 399.40625 135.96875 C 399.06347 135.96876 398.76367 136.04102 398.5 136.1875 C 398.23926 136.33399 398.03711 136.54786 397.84375 136.84375 L 397.84375 134.15625 L 397.03125 134.15625 z M 408.3125 134.15625 L 408.3125 141 L 409.09375 141 L 409.09375 134.15625 L 408.3125 134.15625 z M 388.71875 134.4375 L 388.71875 140.53125 C 388.71875 141.09961 388.62988 141.49902 388.46875 141.71875 C 388.30762 141.93848 388.04883 142.0625 387.65625 142.0625 L 387.375 142.0625 L 387.375 142.8125 L 387.71875 142.8125 C 388.38379 142.8125 388.85742 142.60742 389.15625 142.25 C 389.45801 141.89258 389.59375 141.32227 389.59375 140.53125 L 389.59375 134.4375 L 388.71875 134.4375 z M 381.125 135.96875 C 380.86133 135.96876 380.59082 136.00391 380.3125 136.0625 C 380.03418 136.11817 379.7334 136.19825 379.4375 136.3125 L 379.4375 137.0625 C 379.68359 136.92774 379.95215 136.81739 380.21875 136.75 C 380.48535 136.68262 380.75 136.65625 381.03125 136.65625 C 381.47363 136.65625 381.81933 136.73243 382.0625 136.9375 C 382.30859 137.13965 382.4375 137.44043 382.4375 137.8125 L 382.4375 137.90625 L 381.3125 137.90625 C 380.57715 137.90625 380.02832 138.03125 379.65625 138.3125 C 379.28711 138.59375 379.09375 139.00879 379.09375 139.5625 C 379.09375 140.03711 379.23535 140.43457 379.53125 140.71875 C 379.83008 141 380.24609 141.125 380.75 141.125 C 381.14843 141.125 381.47461 141.04687 381.75 140.90625 C 382.02539 140.7627 382.25293 140.54883 382.4375 140.25 L 382.4375 141 L 383.25 141 L 383.25 138.1875 C 383.25 137.4375 383.07031 136.86914 382.71875 136.5 C 382.36718 136.13086 381.83691 135.96876 381.125 135.96875 z M 404.8125 135.96875 C 404.07422 135.96876 403.49902 136.18165 403.0625 136.65625 C 402.62891 137.12793 402.40625 137.78809 402.40625 138.59375 C 402.40625 139.37305 402.63672 139.98047 403.09375 140.4375 C 403.55371 140.89453 404.18359 141.125 404.96875 141.125 C 405.28222 141.125 405.57031 141.0957 405.875 141.03125 C 406.17968 140.9668 406.49121 140.87305 406.78125 140.75 L 406.78125 140 C 406.49414 140.15234 406.19921 140.23633 405.90625 140.3125 C 405.61621 140.38867 405.31054 140.4375 405 140.4375 C 404.46386 140.4375 404.05176 140.29004 403.75 140 C 403.45117 139.70703 403.28515 139.27539 403.25 138.71875 L 406.96875 138.71875 L 406.96875 138.34375 C 406.96874 137.61133 406.76171 137.01856 406.375 136.59375 C 405.99121 136.16602 405.47461 135.96876 404.8125 135.96875 z M 391.25 136.0625 L 391.25 139.0625 C 391.25 139.73926 391.39453 140.24219 391.6875 140.59375 C 391.98047 140.94531 392.40332 141.125 392.96875 141.125 C 393.31152 141.125 393.61718 141.0498 393.875 140.90625 C 394.13574 140.75977 394.36621 140.54883 394.5625 140.25 L 394.5625 141 L 395.375 141 L 395.375 136.0625 L 394.5625 136.0625 L 394.5625 138.875 C 394.5625 139.35547 394.44238 139.72168 394.1875 140 C 393.93554 140.27832 393.59277 140.4375 393.15625 140.4375 C 392.79297 140.4375 392.52539 140.29395 392.34375 140.0625 C 392.16211 139.82813 392.0625 139.49707 392.0625 139.03125 L 392.0625 136.0625 L 391.25 136.0625 z M 404.5 136.65625 C 404.60162 136.64032 404.73096 136.65625 404.84375 136.65625 C 405.24218 136.65625 405.54101 136.76758 405.78125 137.03125 C 406.02441 137.29493 406.15039 137.65137 406.15625 138.09375 L 403.28125 138.09375 C 403.32226 137.63086 403.48047 137.28614 403.75 137.03125 C 403.95434 136.84009 404.19513 136.70404 404.5 136.65625 z M 384.5 138.1875 L 384.5 138.90625 L 386.875 138.90625 L 386.875 138.1875 L 384.5 138.1875 z M 381.625 138.53125 L 382.4375 138.53125 L 382.4375 138.71875 C 382.4375 139.2461 382.30371 139.64942 382.03125 139.96875 C 381.76172 140.28516 381.41699 140.4375 380.96875 140.4375 C 380.64355 140.4375 380.37793 140.35449 380.1875 140.1875 C 380 140.01758 379.90625 139.78711 379.90625 139.5 C 379.90625 139.13965 380.0293 138.89942 380.28125 138.75 C 380.5332 138.60059 380.97168 138.53125 381.625 138.53125 z "
       id="text3160" />
  </g>
</svg>
