<?xml version="1.0" encoding="UTF-8" standalone="no"?>
<!-- Created with Inkscape (http://www.inkscape.org/) -->

<svg
   xmlns:dc="http://purl.org/dc/elements/1.1/"
   xmlns:cc="http://creativecommons.org/ns#"
   xmlns:rdf="http://www.w3.org/1999/02/22-rdf-syntax-ns#"
   xmlns:svg="http://www.w3.org/2000/svg"
   xmlns="http://www.w3.org/2000/svg"
   xmlns:sodipodi="http://sodipodi.sourceforge.net/DTD/sodipodi-0.dtd"
   xmlns:inkscape="http://www.inkscape.org/namespaces/inkscape"
   width="1003.6815"
   height="1113.6821"
   id="svg2"
   version="1.1"
   inkscape:version="0.91 r13725"
   sodipodi:docname="Carte_cantons_2015_Essonne.svg">
  <defs
     id="defs4" />
  <sodipodi:namedview
     id="base"
     pagecolor="#ffffff"
     bordercolor="#666666"
     borderopacity="1.0"
     inkscape:pageopacity="0.0"
     inkscape:pageshadow="2"
     inkscape:zoom="1"
     inkscape:cx="286.33643"
     inkscape:cy="720.63984"
     inkscape:document-units="px"
     inkscape:current-layer="layer3"
     showgrid="false"
     fit-margin-top="0"
     fit-margin-left="0"
     fit-margin-right="0"
     fit-margin-bottom="0"
     inkscape:window-width="1920"
     inkscape:window-height="1018"
     inkscape:window-x="-8"
     inkscape:window-y="-8"
     inkscape:window-maximized="1" />
  <metadata
     id="metadata7">
    <rdf:RDF>
      <cc:Work
         rdf:about="">
        <dc:format>image/svg+xml</dc:format>
        <dc:type
           rdf:resource="http://purl.org/dc/dcmitype/StillImage" />
        <dc:title></dc:title>
      </cc:Work>
    </rdf:RDF>
  </metadata>
  <g
     inkscape:groupmode="layer"
     id="layer3"
     inkscape:label="Fond de carte"
     sodipodi:insensitive="true">
    <path
       style="fill:#cccccc;fill-opacity:1;stroke:#000000;stroke-width:3.68099999;stroke-linecap:butt;stroke-linejoin:miter;stroke-miterlimit:4;stroke-opacity:1;stroke-dasharray:none"
       d="m 890.96875,95.46875 -38.21875,12.6875 -13.71875,3.375 -1.28125,20.5 -13.59375,14.9375 14.4375,1.40625 -2.34375,30.03125 13.09375,18.5625 10.1875,-11.53125 0.0312,0 10.625,11.28125 18.5625,6.25 2.1875,-15.28125 28.96875,-28.0625 -12.03125,-13.4375 c 0.003,-0.0436 -0.003,-0.0812 0,-0.125 L 890.96875,95.46875 z"
       id="path3184"
       inkscape:connector-curvature="0" />
    <path
       style="fill:#cccccc;fill-opacity:1;stroke:#000000;stroke-width:3.68099999;stroke-linecap:butt;stroke-linejoin:miter;stroke-miterlimit:4;stroke-opacity:1;stroke-dasharray:none"
       d="m 916.15625,163.25 -25.1875,24.21875 -2.1875,14.90625 0.90625,0.6875 -2.90625,-0.8125 -16.0625,-5.53125 L 859.75,184.625 849.46875,196.90625 865.5,217.4375 l 7.65625,9.25 0.125,-0.0937 8.96875,11.0625 c 0.0992,0.0337 -0.0669,0.18623 0.0312,0.21875 l 20.75,25.75 -13.0625,6.34375 -28.34375,33.5625 1.71875,7.25 7.5,18.09375 12.875,-0.96875 0.0312,0 8.15625,20.0625 -3.4375,6.5625 -33.875,10.875 6.84375,18.09375 -11.96875,56.0625 -1.65625,5.34375 0.21875,14.9375 17.0625,14.03125 43.40625,-13.125 -5.21875,-22.6875 0,-0.3125 c 0.01,-0.01 -0.003,-0.0254 0,-0.0312 L 938,406.90625 l 1.5625,-26.9375 -24.40625,-14.03125 -13.0625,-33.40625 5.8125,-4.6875 0.0625,0 28.84375,-4.3125 2.65625,-23.09375 L 947.75,287.78125 926.5,270.625 946.96875,237.75 c -0.002,-0.0502 -0.002,-0.048 0,-0.125 l 14.25,-2.5 12.375,7.90625 14.15625,-15.59375 14.0938,-2.03125 -5.5313,-27.90625 -13.0625,-5.65625 -33.9375,6.8125 -7.03125,-21.28125 -19.75,-2.9375 c -0.0295,-0.0366 -0.0639,-0.0571 -0.0937,-0.0937 L 916.15625,163.25 z m 30.8125,74.5 c 0.0102,0.22584 0.0399,0.25979 0.0312,-0.0625 l -0.0312,0.0625 z"
       id="path3296"
       inkscape:connector-curvature="0" />
    <path
       style="fill:#cccccc;fill-opacity:1;stroke:#000000;stroke-width:3.68099999;stroke-linecap:butt;stroke-linejoin:miter;stroke-miterlimit:4;stroke-opacity:1;stroke-dasharray:none"
       d="m 810,157.4375 -0.90625,6.4375 10.71875,15 -9.625,5 -1.96875,-3.75 1.4375,-6.625 -11.96875,-1.59375 -2.25,12.78125 12.6875,28.875 c -0.0462,0.0516 -0.0793,0.10488 -0.125,0.15625 l -13.15625,7.40625 -27.96875,-35.78125 -14.53125,1.34375 -25.375,-16.75 L 711,192.46875 l -6.03125,19 15.625,22.40625 16.0625,13.78125 L 770.09375,279 c 0.002,0.0104 -0.002,0.0208 0,0.0312 l 12.5625,11.53125 21.75,24.53125 0.0312,-0.0312 27.03125,27.375 0.875,0.5625 c 0.0592,0.10392 0.0966,0.20819 0.15625,0.3125 l 22.09375,22.375 33.875,-10.84375 3.4375,-6.5625 -8.1875,-20.03125 -12.875,0.96875 -7.46875,-18.0625 -0.0312,-0.21875 -1.6875,-7.21875 28.3125,-33.5625 13.125,-6.5625 -20.8125,-25.8125 -9,-11.09375 -7.59375,-9.03125 0.0312,-0.0312 -16.25,-20.65625 -12.75,-17.875 L 810,157.4375 z"
       id="path3260"
       inkscape:connector-curvature="0" />
    <path
       style="fill:#cccccc;fill-opacity:1;stroke:#000000;stroke-width:3.68099999;stroke-linecap:butt;stroke-linejoin:miter;stroke-miterlimit:4;stroke-opacity:1;stroke-dasharray:none"
       d="m 835.40625,111.53125 -15.3125,1.375 -19.34375,12.65625 1.96875,14.6875 c -0.03,0.0345 -0.0637,0.059 -0.0937,0.0937 l -12.46875,-12.875 c -0.0266,0.0147 0.18315,-0.29595 0.15625,-0.28125 l -0.0312,-0.0312 -4.09375,-10.625 -7.46875,2.9375 -31.28125,14.25 -14.4375,15.625 -6.0625,20.5625 25.40625,16.75 14.53125,-1.34375 27.96875,35.75 13.25,-7.4375 -12.625,-28.78125 2.5625,-12.40625 11.625,1.25 -1.09375,6.59375 1.625,3.59375 L 820,179.21875 809.09375,163.875 810,157.625 l 26.125,21.84375 2.53125,-31.21875 -14.25,-1.3125 c -0.0775,-0.056 -0.14306,-0.12698 -0.21875,-0.1875 l 13.5625,-14.84375 1.28125,-20.375 -3.625,0 z"
       id="path3198"
       inkscape:connector-curvature="0" />
    <path
       style="fill:#cccccc;fill-opacity:1;stroke:#000000;stroke-width:3.68099999;stroke-linecap:butt;stroke-linejoin:miter;stroke-miterlimit:4;stroke-opacity:1;stroke-dasharray:none"
       d="m 493.90625,157.59375 -15.6875,14.46875 -37.1875,-1.6875 -7.5,23.625 0,0.28125 -21.75,8.375 -12.53125,19 L 388.8125,195 l -13.28125,-9.09375 -7,43.15625 -0.0312,0 -11.84375,-6.34375 -4.71875,-12.65625 -12.96875,-4.40625 -29.40625,5.4375 -0.53125,7.46875 25.5625,34.03125 25.125,13.09375 0,0.34375 32.375,7.4375 -17.15625,15.96875 8,22.0625 16.28125,16.71875 8.5,-12.4375 21.78125,20.125 1.4375,0.0937 4.875,-5.40625 28.875,4.96875 26.875,-10.1875 14.21875,-14.25 -6.59375,-14.21875 14,-10.125 -10.53125,-35.96875 21.15625,-9.96875 -29.1875,-7.21875 c 0.008,2.3e-4 0.0165,-0.0152 0,-0.0312 l -5.5625,-26.375 0,-0.0312 35.875,-28.0625 3.6875,-14.03125 -13.25,-5.875 -21.46875,-1.625 z"
       id="path3369"
       inkscape:connector-curvature="0" />
    <path
       style="fill:#cccccc;fill-opacity:1;stroke:#000000;stroke-width:3.68099999;stroke-linecap:butt;stroke-linejoin:miter;stroke-miterlimit:4;stroke-opacity:1;stroke-dasharray:none"
       d="m 612,59.4375 -4.6875,4.3125 -10.84375,41.25 -14.4375,2.25 -3.15625,22.0625 33.5,-2.03125 1.40625,21.9375 -4.625,30.25 -8.6875,12.6875 18.03125,9.9375 0,0.21875 -2.625,2.28125 13.28125,19.65625 4.25,23.5 5.71875,-0.46875 20.25,-7.25 24.59375,-33.6875 -20.90625,-19.90625 -3.09375,-6.78125 5.75,-4.75 L 657,169.9375 l -3.25,-1.375 c 0.20159,-0.27469 -0.24363,0.0488 -0.0312,-0.21875 l 3.46875,-29.75 -14.8125,-2.96875 7.5,-12.1875 -5.1875,-20.78125 L 657.09375,86.375 636.875,81.15625 622.34375,65.09375 612,59.4375 z"
       id="path3304"
       inkscape:connector-curvature="0" />
    <path
       style="fill:#cccccc;fill-opacity:1;stroke:#000000;stroke-width:3.68099999;stroke-linecap:butt;stroke-linejoin:miter;stroke-miterlimit:4;stroke-opacity:1;stroke-dasharray:none"
       d="m 683.96875,206.28125 -24.59375,33.5625 13.8125,31.84375 -7.0625,13.34375 3.78125,6.5625 4.90625,3.84375 c 0.0779,-0.0841 0.16822,-0.16725 0.25,-0.25 l -0.25,0.46875 38.4375,6.78125 23.40625,-54.78125 -16.0625,-13.8125 c 0.004,-0.0742 -0.004,-0.14428 0,-0.21875 l -15.625,-22.375 -21,-4.96875 z"
       id="path3229"
       inkscape:connector-curvature="0" />
    <path
       style="fill:#cccccc;fill-opacity:1;stroke:#000000;stroke-width:3.68099999;stroke-linecap:butt;stroke-linejoin:miter;stroke-miterlimit:4;stroke-opacity:1;stroke-dasharray:none"
       d="m 659.375,239.96875 -20.25,7.21875 0,0.0937 -5.71875,0.375 -19.5,-3.84375 -9.5,7.90625 -0.0312,-0.0312 L 590.4375,271 576.40625,242.625 563.28125,269.78125 563.4375,282 l 11.25,4.75 -1.625,12.90625 22.3125,-0.0625 24.84375,26.21875 1.75,28.5625 29.125,0.0937 8.1875,-47.59375 -0.0312,-0.0312 10.65625,-15.15625 -3.8125,-6.5625 7.09375,-13.34375 -13.8125,-31.8125 z"
       id="path3236"
       inkscape:connector-curvature="0" />
    <path
       style="fill:#cccccc;fill-opacity:1;stroke:#000000;stroke-width:3.68099999;stroke-linecap:butt;stroke-linejoin:miter;stroke-miterlimit:4;stroke-opacity:1;stroke-dasharray:none"
       d="m 466.28125,1.75 0.9375,7.6875 L 460.78125,13.5 438,14.96875 427.625,5.25 412.5,4.3125 l -4.5625,5.625 7.25,19.9375 -4.40625,21.5 -0.0937,0.25 -21.28125,-7.65625 -20.1875,11.3125 -15.625,-0.34375 -18.5625,13.5625 -0.0937,7.9375 -5.8125,13.53125 -0.0625,-0.0625 -25.8125,-9.5 -19.59375,7.625 -6.3125,4.5 15.0625,26.53125 -4.1875,14.9375 3.90625,7.4375 -19.65625,31.3125 1,14.6875 -0.0312,0 -12.75,-9.0625 -10.875,28.46875 0.0312,0.0312 c -0.0103,0.0121 -0.0209,0.0191 -0.0312,0.0312 L 231.375,199 l -4.875,4.5 0,-0.0625 -16.25,0.28125 -14.71875,0 -4.90625,13.78125 -7.34375,1.09375 -6,3.59375 -7.125,33.78125 -2.71875,13.71875 -20.6875,-4.28125 -2.40625,13.34375 12.90625,26 21.6875,1.46875 1.65625,21.6875 8.625,11.3125 27.84375,-43.5625 L 202.625,280.5 l 5,-14.25 c -0.004,-0.008 0.004,-0.0229 0,-0.0312 l 13.84375,-6.34375 38.8125,0.40625 12.0625,-10.1875 3.25,13.5 30.46875,19 19.53125,-7.90625 6.34375,-11.53125 -3.71875,-12.46875 6.34375,2.09375 L 309,218.75 l 0.0312,-0.25 0.53125,-7.46875 29.34375,-5.4375 c -0.008,0.002 -0.0154,0.004 0.0312,0 0.0108,-0.002 0.0181,0.002 0.0312,0 l 12.96875,4.65625 4.71875,12.6875 11.84375,6.3125 7.03125,-43.40625 13.75,-2.25 -6.625,-24.59375 1.40625,-18.25 32.65625,-8.84375 14.9375,-5.40625 -0.3125,-0.15625 c 0.10217,0.006 0.21064,0.025 0.3125,0.0312 L 445.8125,108.71875 447,88.375 l -14.46875,2.25 -0.25,-0.0625 c 0.0845,-0.0454 0.16503,-0.07899 0.25,-0.125 l 33.5,-29.625 0.0312,0.28125 L 483.46875,93.8125 538.125,82.03125 551.875,65.3125 540.5625,45.84375 530.28125,36.8125 501.46875,35.75 l -25.75,-10.84375 0,-0.3125 L 469.6875,5.375 466.28125,1.75 z"
       id="path3393"
       inkscape:connector-curvature="0" />
    <path
       style="fill:#cccccc;fill-opacity:1;stroke:#000000;stroke-width:3.68099999;stroke-linecap:butt;stroke-linejoin:miter;stroke-miterlimit:4;stroke-opacity:1;stroke-dasharray:none"
       d="m 266.40625,596.34375 -28.625,7.46875 -18.71875,40.40625 1,21.9375 13.5,19.21875 -1.28125,22.15625 0.125,0.0625 c -0.0427,0.0337 -0.0821,0.0599 -0.125,0.0937 l -54.21875,-1.03125 -0.0937,6.5625 -13.5625,-0.28125 -7.15625,10.40625 -15.03125,-3.03125 -44.5,12.1875 c -0.0039,-0.006 -0.02731,0.006 -0.03125,0 L 89,711.90625 77.15625,702.875 l 2.8125,-21.9375 -19.5625,7.21875 -0.03125,0.0312 -33.71875,-19.875 -14.75,5.3125 -9.625,12.21875 -0.4375,23.46875 8.40625,12.90625 12.6875,8.8125 0.03125,-0.0312 5.21875,24.875 13.125,3.84375 c 0.0034,0.01 -0.0034,0.0216 0,0.0312 l -8.34375,12.65625 2.5625,30.03125 -19.65625,21.25 5.78125,2.5 1,17.40625 27.21875,-5.40625 20.40625,4.5 0.03125,-0.0937 22.46875,11.78125 c -0.002,0.0754 0.002,0.14308 0,0.21875 l -15.75,42.375 15.40625,2.71875 15.4375,34.65625 -17.53125,15.5625 -7.46875,38.1875 17.5625,26.43745 -10.125,11.0938 1.40625,20.8125 -25.9375,12.6563 4.03125,13.125 25.8125,33.0624 22.375,3.5 22.78125,2.9376 29.53125,-7.4688 21.34375,5.6562 12.3125,-9.0312 1.84375,-11.875 0.0312,0 52.1875,2.2188 24.34375,-27.9063 14.84375,-0.9375 -4.65625,23.25 76.375,-3.375 0.46875,-9.5 -12.03125,-13.125 -0.1875,-0.094 c 0.0663,-0.019 0.121,-0.043 0.1875,-0.062 l 1.28125,-13.8126 21.40625,4.0626 2.625,-5 0.125,0.031 15.9375,2.7188 1.96875,-22.8438 L 437.125,977 l 11.375,18.6875 25.65625,15.625 21.6875,-0.4687 -12.375,30.7187 15.25,2.1563 -4.59375,38.5 14.53125,-6.7813 21.375,-30.8437 0,-0.063 33.8125,13.3126 12.75,-4.75 18.28125,-42.6876 6.78125,-3.0312 0.375,0.062 18.15625,-2.9375 23.4375,-28.90625 0.5625,-7 -6.59375,-2.25 -20.4375,1.125 -6.15625,-13.125 -28.46875,3.625 L 580.625,951.4375 580.5,951.5 c 0.0374,-0.14357 0.0875,-0.26163 0.125,-0.40625 l 8.6875,-28.78125 0.0312,0 19.53125,-8.8125 8.1875,-12.21875 4.90625,-31.21875 -7.71875,-21.9375 8.96875,-12.90625 1.46875,-9.8125 0.0625,0 11.25,-9.96875 15.3125,0.1875 15.65625,-26.65625 19.21875,-13.5625 -17.625,-11.75 1.3125,-21.03125 -2.15625,-5.65625 -11.8125,-0.53125 c -0.0277,0.01 -0.0651,0.0219 -0.0937,0.0312 l 0.0937,-0.125 -11.21875,-9.28125 4.34375,-37.65625 -6.59375,-9.5 -0.0312,0.0312 c 0.0106,-0.0429 0.0207,-0.082 0.0312,-0.125 l 3.65625,-23.5 8.5,-7 -2.90625,-14.9375 -13,-7.90625 L 628,635.0625 609.21875,622.625 586.875,626.46875 559.1875,626.8125 541.90625,615.75 l -7.25,1.9375 -0.71875,29.5 -10.4375,19.90625 c -0.009,0.0347 -0.0222,0.0593 -0.0312,0.0937 L 497.5,677.34375 l -0.0937,-0.0312 c 0.0348,-0.10033 0.0589,-0.18018 0.0937,-0.28125 l 3.1875,-29.28125 -11,-9.9375 -21.71875,-4.75 -0.90625,-14.46875 -6.53125,-4.0625 -9.125,12.90625 -35.09375,42.875 0.34375,0.28125 c -0.1173,0.0147 -0.2259,0.0163 -0.34375,0.0312 l -3.5625,14.25 -43.8125,-1.5625 -0.0312,0.0937 -19.34375,-13.53125 -14.84375,4.96875 -12.84375,19.78125 -13.84375,4.96875 c -0.0575,-0.004 -0.099,0.004 -0.15625,0 l 0.125,-0.1875 -4.21875,-6.5625 7,-21.5 -2.34375,-23.0625 -27.3125,-13.34375 6.21875,-29.3125 -20.9375,-9.28125 z"
       id="path3536"
       inkscape:connector-curvature="0" />
    <path
       style="fill:#cccccc;fill-opacity:1;stroke:#000000;stroke-width:3.68099999;stroke-linecap:butt;stroke-linejoin:miter;stroke-miterlimit:4;stroke-opacity:1;stroke-dasharray:none"
       d="m 526.59375,132.65625 -11.21875,26.65625 13.25,5.875 0.0312,0.0312 -3.71875,14.03125 -35.875,28.0625 5.5625,26.28125 29.1875,7.25 c -0.002,0.01 0.002,0.0216 0,0.0312 l -21.15625,9.96875 10.5,35.84375 -14,10.125 6.5625,14.15625 -14.125,14.1875 -26.90625,10.1875 -2.34375,14.6875 18.625,21.71875 32,-1.875 8.0625,-19.65625 19.34375,0.125 8.3125,-11.28125 0,-0.0312 0.15625,-37.3125 -13,-19 4.65625,-18.6875 22.78125,5.875 13.09375,-26.9375 14.0625,28.3125 13.9375,-19.46875 9.5,-7.90625 19.53125,3.84375 -4.25,-23.5 -13.28125,-19.34375 c -0.23731,0.0137 0.0936,-0.65779 0,-0.8125 l 2.59375,-2.25 -18,-9.96875 -3,6.125 L 591.125,194.375 580.5,167.71875 567,161.625 l 0.1875,-14.9375 -40.59375,-14.03125 z"
       id="path3349"
       inkscape:connector-curvature="0" />
    <path
       style="fill:#cccccc;fill-opacity:1;stroke:#000000;stroke-width:3.68099999;stroke-linecap:butt;stroke-linejoin:miter;stroke-miterlimit:4;stroke-opacity:1;stroke-dasharray:none"
       d="m 272.34375,250.125 -12.0625,10.1875 -38.8125,-0.40625 -13.84375,6.28125 -5,14.25 14.4375,15.15625 -27.84375,43.59375 1.5,1.1875 c 0.12538,-0.01 0.27027,-4.5e-4 0.40625,0 l -0.40625,0.28125 22.375,20.5625 -4.09375,20.9375 -29.6875,7 -2.9375,14.9375 4.03125,21.03125 0.28125,0.1875 c -0.0985,0.0582 -0.18184,0.0973 -0.28125,0.15625 l -20.6875,24.25 L 153.1875,496 101.375,497.75 96.40625,503.40625 70.96875,489.375 33.9375,486.4375 28.1875,516.125 70.03125,547 l 21.03125,0.96875 1.71875,15.15625 -14.34375,3.84375 -5.65625,-3.625 -16.46875,9.9375 -27.875,62.6875 -1.75,32.4375 33.71875,19.90625 19.53125,-7.1875 -2.75,21.34375 11.8125,9.0625 8.6875,20.5625 44.53125,-12.1875 15.03125,3.15625 7.15625,-10.40625 13.5625,0.28125 0.125,-6.28125 54.1875,1.03125 1.28125,-22.1875 -13.5,-19.21875 -1,-21.9375 c -0.0216,-0.009 0.0216,-0.0532 0,-0.0625 l 18.71875,-40.5625 c 0.01,-0.0312 0.0217,-0.0625 0.0312,-0.0937 l 28.59375,-7.46875 20.9375,9.28125 c 0.0101,-0.002 0.0213,0.002 0.0312,0 l -0.0312,0.15625 -6.1875,29.625 27.28125,13.34375 2.34375,23.0625 -6.96875,21.5 4.1875,6.5625 13.84375,-5 12.875,-19.65625 14.84375,-5 c 0.0625,-0.14248 0.12557,-0.26452 0.1875,-0.40625 l 19.1875,13.4375 43.8125,1.5625 3.5625,-14.25 34.84375,-42.5625 0.25,0.21875 9.125,-12.90625 5.0625,-13.78125 L 487.5625,597.5 479.5,577.34375 l -2.75,-6.78125 -21.1875,-1.8125 1.40625,-13.84375 -17.9375,-4.6875 c -0.0795,-0.1502 -0.13821,-0.28598 -0.21875,-0.4375 l -23.34375,-19.6875 0.0937,0.15625 -0.125,-0.15625 -6.625,-9.96875 -22,-10.40625 11.90625,-28.25 25.53125,-26.25 0.875,-9.96875 -46.5625,-1.09375 -21.84375,7.6875 -0.15625,0.0312 c 0.0677,-0.14786 0.11944,-0.32391 0.1875,-0.46875 l -8.71875,-14.65625 37.6875,-10.125 3.34375,-15.15625 -6.46875,-14.25 L 392,375.75 390.875,352.65625 398.28125,338.625 429.5,335.6875 407.71875,315.5625 399.1875,328 l -0.125,0.125 -16.09375,-16.5625 -8,-21.9375 17.21875,-16.0625 -32.4375,-7.46875 -25.15625,-13.125 -6.34375,-2.0625 3.71875,12.4375 -6.34375,11.4375 -19.53125,7.90625 -30.4375,-19 -3.3125,-13.5625 z"
       id="path3584"
       inkscape:connector-curvature="0" />
    <path
       style="fill:#cccccc;fill-opacity:1;stroke:#000000;stroke-width:3.68099999;stroke-linecap:butt;stroke-linejoin:miter;stroke-miterlimit:4;stroke-opacity:1;stroke-dasharray:none"
       d="m 831.46875,342.65625 -49.84375,32.3125 -0.125,-0.0937 -7.59375,-1.28125 -28.9375,-3.84375 -18.78125,8.375 -2.25,5.875 10.625,26.53125 -18.0625,13.5625 c 0.18212,-0.008 0.37145,0.0335 0.5625,0.0937 l -0.5625,0.15625 -13.96875,23.21875 -1.625,28.75 6.21875,1.90625 4.53125,18.53125 18.59375,-13.5625 14.9375,-4.53125 14.21875,-18.09375 25.6875,-8.5625 4.375,-0.28125 40.71875,-3.09375 0.0625,0 6.46875,2.375 6.71875,9.28125 4.34375,-14.9375 1.6875,-5.40625 11.96875,-56.09375 -6.84375,-18.09375 -22.125,-22.375 -1,-0.71875 z"
       id="path3276"
       inkscape:connector-curvature="0" />
    <path
       style="fill:#cccccc;fill-opacity:1;stroke:#000000;stroke-width:3.68099999;stroke-linecap:butt;stroke-linejoin:miter;stroke-miterlimit:4;stroke-opacity:1;stroke-dasharray:none"
       d="m 847.8125,444.90625 -4.34375,14.90625 -6.75,-9.25 c -0.002,-0.0431 0.002,-0.0819 0,-0.125 l -6.40625,-1.90625 -40.84375,3.1875 c -0.005,0.0322 0.005,0.0616 0,0.0937 l -4.375,0.28125 -25.6875,8.59375 -14.21875,18.46875 -14.71875,4.4375 -0.21875,-0.28125 -18.59375,13.59375 -23.78125,26.625 -0.0625,-0.0625 -3.3125,19.21875 -0.1875,0.375 -18.125,4.65625 -4.375,-4.71875 -23.34375,-1.84375 -4.59375,36.15625 -21.40625,6.78125 -25.5625,42.4375 22.3125,-3.78125 18.78125,12.4375 10.6875,-8.59375 13,7.90625 2.875,14.8125 -8.46875,6.96875 c 0.0192,0.0762 0.0433,0.14267 0.0625,0.21875 l -0.0625,-0.0312 -3.65625,23.5 6.5625,9.46875 0,0.0312 -4.34375,37.65625 11.25,9.28125 11.8125,0.53125 2.15625,5.65625 c 0.0826,0.0249 -0.0828,0.19385 0,0.21875 l -1.3125,21 17.40625,11.65625 -19.03125,13.34375 -15.625,26.625 -15.34375,-0.15625 -11.25,9.9375 -1.5,9.96875 -8.96875,12.875 7.6875,21.78125 -4.90625,31.21875 0.0937,0.0625 c -0.0263,0.0193 -0.0362,0.0432 -0.0625,0.0625 l -8.1875,12.21875 -19.5,8.875 -8.75,28.875 1.90625,6.78125 28.46875,-3.625 6.1875,13.125 0.0937,-0.0625 20.3125,-1.21875 6.59375,2.25 -0.5625,7 0.0625,0 c -0.0182,0.0345 -0.0443,0.0593 -0.0625,0.0937 l -23.4375,28.875 3.03125,14.75 36.65625,36.1875 5.65625,3.625 12.1875,-5.6563 3.34375,5.875 43.4375,-14.9374 5.5625,-12.4376 -10.875,-11.2812 -4.53125,-22.90625 c 0.0556,-0.0977 0.10106,-0.18408 0.15625,-0.28125 l 13.21875,6.5 28.03125,-9.28125 20.71875,5.87495 -5.25,-29.3437 16.1875,-21.9375 -16.9375,-10.84375 c 0.095,-0.16809 0.21634,-0.36134 0.3125,-0.53125 l 16.4375,-14 14.40625,2.6875 -1.1875,-14.6875 48.875,-19.6875 -12.9375,-17.84375 c 0.006,-0.007 -0.006,-0.0246 0,-0.0312 l 18.28125,-14.46875 30.625,4.28125 22.9375,-20.5625 37.875,5.875 -44.5625,-59.40625 L 883.4375,784.9375 882.5,743.71875 881.96875,731.75 l -9.125,-8.78125 2.40625,-3.875 0.125,0.0312 9.4375,-4.75 -5.21875,-52.21875 11.84375,-9.5 2.53125,-15.625 2.625,-31.9375 -7.09375,-0.21875 -3.34375,-14.03125 -13.84375,-3.375 -0.0625,-0.0625 c 0.021,-0.034 0.0415,-0.0598 0.0625,-0.0937 L 890.03125,529.90625 874.96875,529.25 902.75,486.21875 905.40625,471.5 l 17.8125,-11.75 -14.71875,0.96875 -43.375,13.125 -17.09375,-14.03125 -0.21875,-14.90625 z"
       id="path3448"
       inkscape:connector-curvature="0" />
    <path
       style="fill:#cccccc;fill-opacity:1;stroke:#000000;stroke-width:3.68099999;stroke-linecap:butt;stroke-linejoin:miter;stroke-miterlimit:4;stroke-opacity:1;stroke-dasharray:none"
       d="m 736.65625,247.375 -23.40625,54.78125 -0.0937,0.25 -38.34375,-6.8125 -4.90625,-3.84375 -10.625,15.15625 -8.1875,47.5625 -29.125,-0.0937 -2.34375,1.5625 -15.1875,17.1875 15.1875,35.84375 -3.5,7 17.75,5.4375 c 0.0452,0.007 0.0799,0.0247 0.125,0.0312 l -0.125,0.40625 -2.90625,35.4375 16.5625,39.09375 -7.1875,10.21875 21.46875,36.21875 4.375,4.75 18.3125,-4.75 3.3125,-19.21875 23.84375,-26.71875 -4.5,-18.5625 -6.21875,-1.90625 1.625,-28.625 L 716.5,424.5625 734.5625,411 l -10.59375,-26.78125 -0.1875,-0.0625 c 0.0471,-0.0723 0.11103,-0.18424 0.15625,-0.25 l 2.25,-5.875 1.53125,-7.25 -9.0625,-11.75 L 725,345.6875 c 0.12379,-0.24884 0.22534,-0.47576 0.34375,-0.71875 l 20.71875,-26.65625 13.03125,-17.625 6.5,3.625 17.0625,-13.8125 -12.5625,-11.78125 -33.4375,-31.34375 z"
       id="path3318"
       inkscape:connector-curvature="0" />
    <path
       style="fill:#cccccc;fill-opacity:1;stroke:#000000;stroke-width:3.68099999;stroke-linecap:butt;stroke-linejoin:miter;stroke-miterlimit:4;stroke-opacity:1;stroke-dasharray:none"
       d="m 435.8125,330.5 -4.84375,5.40625 c -0.0117,-0.0292 -0.0197,-0.0646 -0.0312,-0.0937 l -1.4375,-0.0937 -31.21875,2.9375 -7.40625,14.03125 1.125,23.09375 -9.375,21.34375 6.46875,14.25 -3.34375,15.15625 -37.875,10.1875 8.875,14.90625 21.8125,-7.6875 46.5625,1.125 c 0.0221,0.0218 -0.0219,0.0407 0,0.0625 l -0.875,9.9375 0.375,0.28125 c -0.1221,-0.0606 -0.25357,-0.12713 -0.375,-0.1875 l -25.53125,26.25 -11.90625,28.34375 22,10.40625 6.625,9.6875 23.34375,19.6875 18.1875,4.75 -1.40625,14.21875 21.1875,1.8125 2.75,6.78125 c -0.0286,-0.003 -0.0797,-0.01 -0.0312,0 l 0.0312,0.28125 8.03125,20.03125 -21.90625,3.84375 -5.09375,13.78125 6.5625,3.78125 0.875,14.46875 21.75,4.75 11,9.96875 -3.21875,29.28125 26.03125,-10.1875 10.4375,-19.90625 0.71875,-29.46875 7.21875,-1.96875 17.28125,11.0625 27.71875,-0.34375 25.53125,-42.4375 -37.40625,-11.53125 -0.0625,0.0312 -5.6875,-13.71875 12.9375,-25.53125 -14.3125,-4.09375 -0.0312,0 c 0.007,-0.021 0.024,-0.0416 0.0312,-0.0625 l 7.6875,-19.46875 -25.15625,-18.0625 -1.65625,-29.28125 12.90625,-19.09375 0.28125,0.0937 -0.0312,-0.4375 -0.0312,0 -3.375,-30.84375 -30,-25.53125 c -0.0865,-0.0658 -0.16384,-0.12211 -0.25,-0.1875 l 0.25,-0.21875 21.59375,-26.15625 -9.75,-9.5 -19.34375,-0.53125 -8.0625,19.65625 -0.0625,0.4375 -31.9375,1.875 -18.625,-21.6875 2.34375,-14.71875 -28.875,-4.96875 z"
       id="path3615"
       inkscape:connector-curvature="0" />
    <path
       style="fill:#cccccc;fill-opacity:1;stroke:#000000;stroke-width:3.68099999;stroke-linecap:butt;stroke-linejoin:miter;stroke-miterlimit:4;stroke-opacity:1;stroke-dasharray:none"
       d="m 540.5,263.90625 -4.65625,18.90625 13,19 -0.15625,37.3125 -8.3125,11.3125 9.75,9.5 c 0.049,-0.002 0.10598,-0.002 0.15625,0 L 550.125,360 l -21.59375,26.15625 30,25.53125 3.4375,31.28125 -13.1875,19.34375 1.65625,29.5 25.15625,17.875 -7.65625,19.40625 14.3125,4.0625 -12.9375,25.5625 5.71875,13.78125 37.4375,11.53125 21.4375,-6.78125 4.5625,-36.125 23.375,1.8125 -21.5,-36.21875 -0.0625,-0.0625 c 0.0206,-0.0143 0.0418,-0.017 0.0625,-0.0312 l 7.28125,-10.40625 -16.65625,-39.375 2.90625,-35.4375 -17.71875,-5.4375 3.46875,-6.9375 L 604.4375,373.1875 619.625,356 l 2.34375,-1.625 -1.75,-28.4375 -24.84375,-26.21875 -22.1875,0.0625 c -0.0431,-0.0435 -0.0816,-0.0814 -0.125,-0.125 l 1.625,-12.90625 -11.25,-4.75 -0.15625,-12.21875 -22.78125,-5.875 z"
       id="path3336"
       inkscape:connector-curvature="0" />
    <path
       style="fill:#cccccc;fill-opacity:1;stroke:#000000;stroke-width:3.68099999;stroke-linecap:butt;stroke-linejoin:miter;stroke-miterlimit:4;stroke-opacity:1;stroke-dasharray:none"
       d="m 680.90625,69.8125 -23.8125,16.75 -12.40625,16.28125 5.1875,20.5625 -7.5,12.21875 14.8125,2.9375 -3.5,29.75 3.3125,1.5625 0.0625,-0.1875 8.65625,4.96875 c 0.0972,0.0936 0.0615,0.0672 0.0312,0.0312 0.008,0.008 0.0193,-0.0113 0.0312,0 l -0.0937,0.375 -5.71875,4.75 3.0625,6.78125 20.9375,19.90625 21,4.96875 6.03125,-19 0,-0.40625 15.96875,-22.40625 6.03125,-20.5625 14.46875,-15.625 -4.875,-18.53125 L 706,128.5 682.21875,128.3125 681.8125,110.96875 680.90625,69.8125 z"
       id="path3218"
       inkscape:connector-curvature="0" />
    <path
       style="fill:#cccccc;fill-opacity:1;stroke:#000000;stroke-width:3.68099999;stroke-linecap:butt;stroke-linejoin:miter;stroke-miterlimit:4;stroke-opacity:1;stroke-dasharray:none"
       d="M 466.0625,60.78125 432.53125,90.65625 447,88.5625 l -1.15625,20.03125 -0.0312,0 -14.15625,17.65625 -14.9375,5.4375 0,0.0625 -32.65625,8.84375 -1.40625,18.3125 6.625,24.59375 -13.78125,2.15625 13.3125,9.28125 10.4375,26.625 12.53125,-19 21.75,-8.34375 7.5,-23.8125 c 0.0557,-0.0729 0.10074,-0.14598 0.15625,-0.21875 l 37,1.6875 15.6875,-14.46875 21.5,1.625 11.21875,-26.6875 -24.375,-17.84375 -22.4375,-3.15625 8.125,-11.9375 -4.46875,-5.875 -17.375,-32.75 z"
       id="path3247"
       inkscape:connector-curvature="0" />
    <path
       style="fill:#cccccc;fill-opacity:1;stroke:#000000;stroke-width:3.68099999;stroke-linecap:butt;stroke-linejoin:miter;stroke-miterlimit:4;stroke-opacity:1;stroke-dasharray:none"
       d="m 538.125,81.75 -54.6875,11.78125 4.46875,5.4375 -8.3125,12.21875 22.625,3.15625 24.375,17.875 40.59375,14.03125 c 0.0532,0.0141 0.10318,0.0172 0.15625,0.0312 l -0.15625,0.25 -0.1875,16.40625 13.5,5.21875 10.625,26.65625 6.34375,3.625 3,-6.125 8.6875,-12.65625 4.65625,-30.1875 -1.4375,-21.9375 -33.25,2 c -0.0744,-0.0863 -0.14333,-0.16304 -0.21875,-0.25 l 3.125,-22.15625 -2.59375,-22.40625 -27.9375,12 -7.5625,-0.9375 L 538.125,81.75 z"
       id="path3207"
       inkscape:connector-curvature="0" />
    <path
       style="fill:#cccccc;fill-opacity:1;stroke:#000000;stroke-width:3.68099999;stroke-linecap:butt;stroke-linejoin:miter;stroke-miterlimit:4;stroke-opacity:1;stroke-dasharray:none"
       d="m 782.65625,290.625 -17.0625,13.78125 -6.5,-3.59375 -12.96875,17.84375 -0.0625,-0.0625 L 725,345.65625 718.6875,359 l 9.03125,11.75 -1.53125,7.25 18.78125,-8.375 28.8125,3.8125 0.125,0.25 7.5625,1.28125 50,-32.40625 L 804.375,315.15625 782.65625,290.625 z"
       id="path4730"
       inkscape:connector-curvature="0" />
    <text
       sodipodi:linespacing="125%"
       id="text4431-1-9-3-11"
       y="480.41479"
       x="461.28665"
       style="font-size:19.37664032px;font-style:normal;font-variant:normal;font-weight:normal;font-stretch:normal;text-align:start;line-height:125%;letter-spacing:0px;word-spacing:0px;writing-mode:lr-tb;text-anchor:start;fill:#000000;fill-opacity:1;stroke:none;display:inline;font-family:Sans;-inkscape-font-specification:Sans"
       xml:space="preserve"
       transform="scale(0.99304629,1.0070024)"><tspan
         y="480.41479"
         x="461.28665"
         id="tspan4433-2-82-2-52"
         sodipodi:role="line"
         style="font-size:14px;font-style:normal;font-variant:normal;font-weight:normal;font-stretch:normal;font-family:Lucida Sans;-inkscape-font-specification:Lucida Sans">Arpajon</tspan></text>
    <text
       sodipodi:linespacing="125%"
       id="text4431-1-9-3-11-1"
       y="480.40234"
       x="238.71086"
       style="font-size:19.37664032px;font-style:normal;font-variant:normal;font-weight:normal;font-stretch:normal;text-align:start;line-height:125%;letter-spacing:0px;word-spacing:0px;writing-mode:lr-tb;text-anchor:start;fill:#000000;fill-opacity:1;stroke:none;display:inline;font-family:Sans;-inkscape-font-specification:Sans"
       xml:space="preserve"
       transform="scale(0.99304629,1.0070024)"><tspan
         y="480.40234"
         x="238.71086"
         id="tspan4433-2-82-2-52-7"
         sodipodi:role="line"
         style="font-size:14px;font-style:normal;font-variant:normal;font-weight:normal;font-stretch:normal;font-family:Lucida Sans;-inkscape-font-specification:Lucida Sans">Dourdan</tspan></text>
    <text
       sodipodi:linespacing="125%"
       id="text4431-1-9-3-11-4"
       y="124.39214"
       x="314.90109"
       style="font-size:19.37664032px;font-style:normal;font-variant:normal;font-weight:normal;font-stretch:normal;text-align:start;line-height:125%;letter-spacing:0px;word-spacing:0px;writing-mode:lr-tb;text-anchor:start;fill:#000000;fill-opacity:1;stroke:none;display:inline;font-family:Sans;-inkscape-font-specification:Sans"
       xml:space="preserve"
       transform="scale(0.99304629,1.0070024)"><tspan
         y="124.39214"
         x="314.90109"
         id="tspan4433-2-82-2-52-0"
         sodipodi:role="line"
         style="font-size:14px;font-style:normal;font-variant:normal;font-weight:normal;font-stretch:normal;font-family:Lucida Sans;-inkscape-font-specification:Lucida Sans">Gif-sur-Yvette</tspan></text>
    <text
       sodipodi:linespacing="125%"
       id="text4431-1-9-3-11-9"
       y="148.96878"
       x="427.05026"
       style="font-size:19.37664032px;font-style:normal;font-variant:normal;font-weight:normal;font-stretch:normal;text-align:start;line-height:125%;letter-spacing:0px;word-spacing:0px;writing-mode:lr-tb;text-anchor:start;fill:#000000;fill-opacity:1;stroke:none;display:inline;font-family:Sans;-inkscape-font-specification:Sans"
       xml:space="preserve"
       transform="scale(0.99304629,1.0070024)"><tspan
         y="148.96878"
         x="427.05026"
         id="tspan4433-2-82-2-52-4"
         sodipodi:role="line"
         style="font-size:14px;font-style:normal;font-variant:normal;font-weight:normal;font-stretch:normal;font-family:Lucida Sans;-inkscape-font-specification:Lucida Sans">Palaiseau</tspan></text>
    <text
       sodipodi:linespacing="125%"
       id="text4431-1-9-3-11-8"
       y="119.64719"
       x="530.42523"
       style="font-size:19.37664032px;font-style:normal;font-variant:normal;font-weight:normal;font-stretch:normal;text-align:start;line-height:125%;letter-spacing:0px;word-spacing:0px;writing-mode:lr-tb;text-anchor:start;fill:#000000;fill-opacity:1;stroke:none;display:inline;font-family:Sans;-inkscape-font-specification:Sans"
       xml:space="preserve"
       transform="scale(0.99304629,1.0070024)"><tspan
         y="119.64719"
         x="530.42523"
         id="tspan4433-2-82-2-52-8"
         sodipodi:role="line"
         style="font-size:14px;font-style:normal;font-variant:normal;font-weight:normal;font-stretch:normal;font-family:Lucida Sans;-inkscape-font-specification:Lucida Sans">Massy</tspan></text>
    <text
       sodipodi:linespacing="125%"
       id="text4431-1-9-3-11-2"
       y="260.61694"
       x="418.14954"
       style="font-size:19.37664032px;font-style:normal;font-variant:normal;font-weight:normal;font-stretch:normal;text-align:start;line-height:125%;letter-spacing:0px;word-spacing:0px;writing-mode:lr-tb;text-anchor:start;fill:#000000;fill-opacity:1;stroke:none;display:inline;font-family:Sans;-inkscape-font-specification:Sans"
       xml:space="preserve"
       transform="scale(0.99304629,1.0070024)"><tspan
         y="260.61694"
         x="418.14954"
         id="tspan4433-2-82-2-52-45"
         sodipodi:role="line"
         style="font-size:14px;font-style:normal;font-variant:normal;font-weight:normal;font-stretch:normal;font-family:Lucida Sans;-inkscape-font-specification:Lucida Sans">Les Ulis</tspan></text>
    <text
       sodipodi:linespacing="125%"
       id="text4431-1-9-3-11-5"
       y="221.3795"
       x="525.27417"
       style="font-size:19.37664032px;font-style:normal;font-variant:normal;font-weight:normal;font-stretch:normal;text-align:start;line-height:125%;letter-spacing:0px;word-spacing:0px;writing-mode:lr-tb;text-anchor:start;fill:#000000;fill-opacity:1;stroke:none;display:inline;font-family:Sans;-inkscape-font-specification:Sans"
       xml:space="preserve"
       transform="scale(0.99304629,1.0070024)"><tspan
         y="221.3795"
         x="525.27417"
         id="tspan4433-2-82-2-52-1"
         sodipodi:role="line"
         style="font-size:14px;font-style:normal;font-variant:normal;font-weight:normal;font-stretch:normal;font-family:Lucida Sans;-inkscape-font-specification:Lucida Sans">Longjumeau</tspan></text>
    <text
       sodipodi:linespacing="125%"
       id="text4431-1-9-3-11-7"
       y="199.95738"
       x="846.55536"
       style="font-size:13.37592793px;font-style:normal;font-variant:normal;font-weight:normal;font-stretch:normal;text-align:start;line-height:125%;letter-spacing:0px;word-spacing:0px;writing-mode:lr-tb;text-anchor:start;fill:#000000;fill-opacity:1;stroke:none;display:inline;font-family:Sans;-inkscape-font-specification:Sans"
       xml:space="preserve"
       transform="scale(0.68551182,1.4587641)"><tspan
         y="199.95738"
         x="846.55536"
         id="tspan4433-2-82-2-52-11"
         sodipodi:role="line"
         style="font-size:9.66436863px;font-style:normal;font-variant:normal;font-weight:normal;font-stretch:normal;font-family:Lucida Sans;-inkscape-font-specification:Lucida Sans">Sainte-Geneviève-des-Bois</tspan></text>
    <text
       sodipodi:linespacing="125%"
       id="text4431-1-9-3-11-52"
       y="381.85312"
       x="704.66022"
       style="font-size:15.44689274px;font-style:normal;font-variant:normal;font-weight:normal;font-stretch:normal;text-align:start;line-height:125%;letter-spacing:0px;word-spacing:0px;writing-mode:lr-tb;text-anchor:start;fill:#000000;fill-opacity:1;stroke:none;display:inline;font-family:Sans;-inkscape-font-specification:Sans"
       xml:space="preserve"
       transform="scale(0.79164805,1.2631876)"><tspan
         y="381.85312"
         x="704.66022"
         id="tspan4433-2-82-2-52-76"
         sodipodi:role="line"
         style="font-size:11.16068077px;font-style:normal;font-variant:normal;font-weight:normal;font-stretch:normal;font-family:Lucida Sans;-inkscape-font-specification:Lucida Sans">Brétigny-sur-Orge</tspan></text>
    <text
       sodipodi:linespacing="125%"
       id="text4431-1-9-3-11-14"
       y="37.025299"
       x="659.88214"
       style="font-size:17.33537865px;font-style:normal;font-variant:normal;font-weight:normal;font-stretch:normal;text-align:start;line-height:125%;letter-spacing:0px;word-spacing:0px;writing-mode:lr-tb;text-anchor:start;fill:#000000;fill-opacity:1;stroke:none;display:inline;font-family:Sans;-inkscape-font-specification:Sans"
       xml:space="preserve"
       transform="scale(0.88843235,1.1255781)"><tspan
         y="37.025299"
         x="659.88214"
         id="tspan4433-2-82-2-52-2"
         sodipodi:role="line"
         style="font-size:12.52514935px;font-style:normal;font-variant:normal;font-weight:normal;font-stretch:normal;font-family:Lucida Sans;-inkscape-font-specification:Lucida Sans">Savigny-sur-Orge</tspan></text>
    <text
       sodipodi:linespacing="125%"
       id="text4431-1-9-3-11-3"
       y="147.19661"
       x="708.0517"
       style="font-size:18.19738579px;font-style:normal;font-variant:normal;font-weight:normal;font-stretch:normal;text-align:start;line-height:125%;letter-spacing:0px;word-spacing:0px;writing-mode:lr-tb;text-anchor:start;fill:#000000;fill-opacity:1;stroke:none;display:inline;font-family:Sans;-inkscape-font-specification:Sans"
       xml:space="preserve"
       transform="scale(0.9326099,1.0722597)"><tspan
         y="147.19661"
         x="708.0517"
         id="tspan4433-2-82-2-52-22"
         sodipodi:role="line"
         style="font-size:13.14796543px;font-style:normal;font-variant:normal;font-weight:normal;font-stretch:normal;font-family:Lucida Sans;-inkscape-font-specification:Lucida Sans">Athis-Mons</tspan></text>
    <text
       sodipodi:linespacing="125%"
       id="text4431-1-9-3-11-16"
       y="149.61476"
       x="858.37561"
       style="font-size:19.37664032px;font-style:normal;font-variant:normal;font-weight:normal;font-stretch:normal;text-align:start;line-height:125%;letter-spacing:0px;word-spacing:0px;writing-mode:lr-tb;text-anchor:start;fill:#000000;fill-opacity:1;stroke:none;display:inline;font-family:Sans;-inkscape-font-specification:Sans"
       xml:space="preserve"
       transform="scale(0.99304629,1.0070024)"><tspan
         y="149.61476"
         x="858.37561"
         id="tspan4433-2-82-2-52-85"
         sodipodi:role="line"
         style="font-size:14px;font-style:normal;font-variant:normal;font-weight:normal;font-stretch:normal;font-family:Lucida Sans;-inkscape-font-specification:Lucida Sans">Yerres</tspan></text>
    <text
       sodipodi:linespacing="125%"
       id="text4431-1-9-3-11-76"
       y="80.73439"
       x="873.20966"
       style="font-size:16.21207809px;font-style:normal;font-variant:normal;font-weight:normal;font-stretch:normal;text-align:start;line-height:125%;letter-spacing:0px;word-spacing:0px;writing-mode:lr-tb;text-anchor:start;fill:#000000;fill-opacity:1;stroke:none;display:inline;font-family:Sans;-inkscape-font-specification:Sans"
       xml:space="preserve"
       transform="scale(0.83086353,1.2035671)"><tspan
         y="80.73439"
         x="873.20966"
         id="tspan4433-2-82-2-52-18"
         sodipodi:role="line"
         style="font-size:11.71354198px;font-style:normal;font-variant:normal;font-weight:normal;font-stretch:normal;font-family:Lucida Sans;-inkscape-font-specification:Lucida Sans">Vigneux-sur-Seine</tspan></text>
    <text
       sodipodi:linespacing="125%"
       id="text4431-1-9-3-11-92"
       y="203.0972"
       x="842.53009"
       style="font-size:15.50786972px;font-style:normal;font-variant:normal;font-weight:normal;font-stretch:normal;text-align:start;line-height:125%;letter-spacing:0px;word-spacing:0px;writing-mode:lr-tb;text-anchor:start;fill:#000000;fill-opacity:1;stroke:none;display:inline;font-family:Sans;-inkscape-font-specification:Sans"
       xml:space="preserve"
       transform="scale(0.79477307,1.2582208)"><tspan
         y="203.0972"
         x="842.53009"
         id="tspan4433-2-82-2-52-79"
         sodipodi:role="line"
         style="font-size:11.20473766px;font-style:normal;font-variant:normal;font-weight:normal;font-stretch:normal;font-family:Lucida Sans;-inkscape-font-specification:Lucida Sans">Viry-Châtillon</tspan></text>
    <text
       sodipodi:linespacing="125%"
       id="text4431-1-9-3-11-54"
       y="256.5376"
       x="796.54614"
       style="font-size:19.37664032px;font-style:normal;font-variant:normal;font-weight:normal;font-stretch:normal;text-align:start;line-height:125%;letter-spacing:0px;word-spacing:0px;writing-mode:lr-tb;text-anchor:start;fill:#000000;fill-opacity:1;stroke:none;display:inline;font-family:Sans;-inkscape-font-specification:Sans"
       xml:space="preserve"
       transform="scale(0.99304629,1.0070024)"><tspan
         y="256.5376"
         x="796.54614"
         id="tspan4433-2-82-2-52-3"
         sodipodi:role="line"
         style="font-size:14px;font-style:normal;font-variant:normal;font-weight:normal;font-stretch:normal;font-family:Lucida Sans;-inkscape-font-specification:Lucida Sans">Draveil</tspan></text>
    <text
       sodipodi:linespacing="125%"
       id="text4431-1-9-3-11-12"
       y="398.85904"
       x="641.28888"
       style="font-size:19.37664032px;font-style:normal;font-variant:normal;font-weight:normal;font-stretch:normal;text-align:start;line-height:125%;letter-spacing:0px;word-spacing:0px;writing-mode:lr-tb;text-anchor:start;fill:#000000;fill-opacity:1;stroke:none;display:inline;font-family:Sans;-inkscape-font-specification:Sans"
       xml:space="preserve"
       transform="scale(0.99304629,1.0070024)"><tspan
         y="398.85904"
         x="641.28888"
         id="tspan4433-2-82-2-52-33"
         sodipodi:role="line"
         style="font-size:14px;font-style:normal;font-variant:normal;font-weight:normal;font-stretch:normal;font-family:Lucida Sans;-inkscape-font-specification:Lucida Sans">Ris-Orangis</tspan></text>
    <text
       sodipodi:linespacing="125%"
       id="text4431-1-9-3-11-41"
       y="342.5213"
       x="762.57336"
       style="font-size:19.37664032px;font-style:normal;font-variant:normal;font-weight:normal;font-stretch:normal;text-align:start;line-height:125%;letter-spacing:0px;word-spacing:0px;writing-mode:lr-tb;text-anchor:start;fill:#000000;fill-opacity:1;stroke:none;display:inline;font-family:Sans;-inkscape-font-specification:Sans"
       xml:space="preserve"
       transform="scale(0.99304629,1.0070024)"><tspan
         y="342.5213"
         x="762.57336"
         id="tspan4433-2-82-2-52-13"
         sodipodi:role="line"
         style="font-size:14px;font-style:normal;font-variant:normal;font-weight:normal;font-stretch:normal;font-family:Lucida Sans;-inkscape-font-specification:Lucida Sans">Evry</tspan></text>
    <text
       sodipodi:linespacing="125%"
       id="text4431-1-9-3-11-87"
       y="381.98065"
       x="818.5321"
       style="font-size:17.77420998px;font-style:normal;font-variant:normal;font-weight:normal;font-stretch:normal;text-align:start;line-height:125%;letter-spacing:0px;word-spacing:0px;writing-mode:lr-tb;text-anchor:start;fill:#000000;fill-opacity:1;stroke:none;display:inline;font-family:Sans;-inkscape-font-specification:Sans"
       xml:space="preserve"
       transform="scale(0.91092234,1.0977884)"><tspan
         y="381.98065"
         x="818.5321"
         id="tspan4433-2-82-2-52-42"
         sodipodi:role="line"
         style="font-size:12.84221363px;font-style:normal;font-variant:normal;font-weight:normal;font-stretch:normal;font-family:Lucida Sans;-inkscape-font-specification:Lucida Sans">Corbeil-Essonnes</tspan></text>
    <text
       sodipodi:linespacing="125%"
       id="text4431-1-9-3-11-77"
       y="203.87799"
       x="955.5451"
       style="font-size:17.95375824px;font-style:normal;font-variant:normal;font-weight:normal;font-stretch:normal;text-align:start;line-height:125%;letter-spacing:0px;word-spacing:0px;writing-mode:lr-tb;text-anchor:start;fill:#000000;fill-opacity:1;stroke:none;display:inline;font-family:Sans;-inkscape-font-specification:Sans"
       xml:space="preserve"
       transform="scale(0.92012409,1.0868099)"><tspan
         y="203.87799"
         x="955.5451"
         id="tspan4433-2-82-2-52-9"
         sodipodi:role="line"
         style="font-size:12.97194004px;font-style:normal;font-variant:normal;font-weight:normal;font-stretch:normal;font-family:Lucida Sans;-inkscape-font-specification:Lucida Sans">Epinay-sous-Sénart</tspan></text>
    <text
       sodipodi:linespacing="125%"
       id="text4431-1-9-3-11-31"
       y="723.26935"
       x="744.18201"
       style="font-size:19.37664032px;font-style:normal;font-variant:normal;font-weight:normal;font-stretch:normal;text-align:start;line-height:125%;letter-spacing:0px;word-spacing:0px;writing-mode:lr-tb;text-anchor:start;fill:#000000;fill-opacity:1;stroke:none;display:inline;font-family:Sans;-inkscape-font-specification:Sans"
       xml:space="preserve"
       transform="scale(0.99304629,1.0070024)"><tspan
         y="723.26935"
         x="744.18201"
         id="tspan4433-2-82-2-52-98"
         sodipodi:role="line"
         style="font-size:14px;font-style:normal;font-variant:normal;font-weight:normal;font-stretch:normal;font-family:Lucida Sans;-inkscape-font-specification:Lucida Sans">Mennecy</tspan></text>
    <text
       sodipodi:linespacing="125%"
       id="text4431-1-9-3-11-6"
       y="869.85602"
       x="323.52603"
       style="font-size:19.37664032px;font-style:normal;font-variant:normal;font-weight:normal;font-stretch:normal;text-align:start;line-height:125%;letter-spacing:0px;word-spacing:0px;writing-mode:lr-tb;text-anchor:start;fill:#000000;fill-opacity:1;stroke:none;display:inline;font-family:Sans;-inkscape-font-specification:Sans"
       xml:space="preserve"
       transform="scale(0.99304629,1.0070024)"><tspan
         y="869.85602"
         x="323.52603"
         id="tspan4433-2-82-2-52-5"
         sodipodi:role="line"
         style="font-size:14px;font-style:normal;font-variant:normal;font-weight:normal;font-stretch:normal;font-family:Lucida Sans;-inkscape-font-specification:Lucida Sans">Etampes</tspan></text>
    <path
       style="fill:none;stroke:#000000;stroke-width:1px;stroke-linecap:butt;stroke-linejoin:miter;stroke-opacity:1"
       d="m 633.5,45.682133 -15,60.499997"
       id="path4870"
       inkscape:connector-curvature="0" />
    <path
       style="fill:none;stroke:#000000;stroke-width:1px;stroke-linecap:butt;stroke-linejoin:miter;stroke-opacity:1"
       d="m 760.49334,101.45878 18.03122,43.48706"
       id="path4872"
       inkscape:connector-curvature="0" />
  </g>
  <style
     id="style3197"
     type="text/css">

.communes { 
	fill           : #b9b9b9;
	fill-opacity   : 1;
	stroke         : white;
	stroke-opacity : 1;
	stroke-width   : 0.002;
}

</style>
</svg>
